<?xml version="1.0" encoding="UTF-8"?>
<svg xmlns="http://www.w3.org/2000/svg" xmlns:xlink="http://www.w3.org/1999/xlink" width="813.81pt" height="278.04pt" viewBox="0 0 813.81 278.04" version="1.1">
<defs>
<clipPath id="clip1">
  <path d="M 782 52 L 813.808594 52 L 813.808594 85 L 782 85 Z M 782 52 "/>
</clipPath>
<clipPath id="clip2">
  <path d="M 300 242 L 326 242 L 326 278.039063 L 300 278.039063 Z M 300 242 "/>
</clipPath>
</defs>
<g id="surface1">
<path style=" stroke:none;fill-rule:nonzero;fill:rgb(15.299988%,19.198608%,52.198792%);fill-opacity:1;" d="M 106.273438 46.25 L 66.347656 164.695313 L 26.425781 46.25 L 0 46.25 L 53.476563 202.992188 L 79.542969 202.992188 L 133.34375 46.25 "/>
<path style=" stroke:none;fill-rule:nonzero;fill:rgb(15.299988%,19.198608%,52.198792%);fill-opacity:1;" d="M 144.53125 202.992188 L 170.636719 202.992188 L 170.636719 46.253906 L 144.53125 46.253906 Z M 144.53125 202.992188 "/>
<path style=" stroke:none;fill-rule:nonzero;fill:rgb(15.299988%,19.198608%,52.198792%);fill-opacity:1;" d="M 212.058594 46.253906 L 212.058594 58.730469 C 216.144531 53.175781 221.261719 49.242188 227.367188 47.003906 C 233.480469 44.757813 240.722656 43.632813 249.097656 43.632813 C 253.609375 43.632813 258.921875 44.390625 265.050781 45.867188 C 271.15625 47.390625 276.902344 49.753906 282.277344 52.945313 L 267.128906 74.148438 C 259.84375 70.714844 252.753906 69.023438 245.875 69.023438 C 235.792969 69.023438 227.75 71.464844 221.71875 76.414063 C 215.714844 81.367188 212.5 88.222656 212.058594 97.023438 L 212.058594 202.992188 L 185.980469 202.992188 L 185.980469 46.253906 "/>
<path style=" stroke:none;fill-rule:nonzero;fill:rgb(15.299988%,19.198608%,52.198792%);fill-opacity:1;" d="M 309.6875 -0.00390625 L 335.753906 -0.00390625 L 335.753906 43.632813 L 377.503906 43.632813 L 377.503906 69.027344 L 335.753906 69.027344 L 335.753906 156.988281 C 335.753906 162.578125 337.113281 167.421875 339.796875 171.507813 C 342.496094 175.601563 347.289063 177.621094 354.164063 177.621094 L 379.652344 177.621094 L 379.652344 202.992188 L 354.171875 202.992188 C 340.207031 202.992188 329.300781 198.90625 321.445313 190.765625 C 313.59375 182.59375 309.6875 171.328125 309.6875 156.960938 L 309.6875 69.027344 L 293.261719 69.027344 L 293.261719 43.632813 L 309.6875 43.632813 "/>
<path style=" stroke:none;fill-rule:nonzero;fill:rgb(15.299988%,19.198608%,52.198792%);fill-opacity:1;" d="M 483.789063 200.386719 L 483.789063 187.582031 C 479.28125 192.734375 473.574219 196.570313 466.703125 199.132813 C 459.828125 201.707031 453.296875 202.992188 447.0625 202.992188 C 429.449219 202.992188 415.589844 198.066406 405.480469 188.203125 C 395.390625 178.3125 390.355469 164.898438 390.355469 147.949219 L 390.355469 43.632813 L 416.4375 43.632813 L 416.4375 147.988281 C 416.4375 157.222656 419.496094 164.472656 425.625 169.722656 C 431.746094 174.988281 439.972656 177.621094 450.285156 177.621094 C 460.144531 177.621094 468.164063 175.15625 474.28125 170.210938 C 480.414063 165.273438 483.578125 158.394531 483.789063 149.613281 L 483.789063 43.632813 L 509.867188 43.632813 L 509.867188 200.386719 "/>
<path style=" stroke:none;fill-rule:nonzero;fill:rgb(15.299988%,19.198608%,52.198792%);fill-opacity:1;" d="M 543.21875 153.476563 C 545.164063 161.21875 549.460938 167.160156 556.101563 171.351563 C 562.753906 175.527344 570.386719 177.621094 578.984375 177.621094 C 589.695313 177.621094 598.191406 175.683594 604.410156 171.824219 C 610.644531 167.949219 613.753906 162.496094 613.753906 155.40625 C 613.753906 148.308594 611.347656 143.246094 606.511719 140.265625 C 601.691406 137.261719 592.09375 134.789063 577.722656 132.84375 C 560.996094 130.878906 547.328125 126.4375 536.722656 119.472656 C 526.117188 112.488281 520.816406 101.582031 520.816406 86.773438 C 521.222656 72.152344 526.644531 60.882813 537.039063 52.941406 C 547.464844 45.011719 561.464844 41.003906 579.039063 41.003906 C 594.929688 41.003906 608.015625 45.109375 618.320313 53.226563 C 628.609375 61.355469 635.152344 72.75 637.945313 87.34375 L 611.859375 90.566406 C 610.132813 82.8125 606.339844 76.867188 600.4375 72.675781 C 594.554688 68.492188 587.421875 66.402344 579.039063 66.402344 C 568.972656 66.402344 561.089844 68.140625 555.410156 71.550781 C 549.703125 74.980469 546.894531 80.027344 546.894531 86.691406 C 546.894531 93.347656 550.203125 98.25 556.851563 101.347656 C 563.507813 104.484375 571.226563 106.476563 580 107.328125 C 602.105469 109.464844 617.613281 114.285156 626.496094 121.800781 C 635.40625 129.335938 639.84375 140.492188 639.84375 155.324219 C 639.84375 170.132813 634.316406 181.796875 623.253906 190.285156 C 612.191406 198.773438 597.441406 202.992188 578.984375 202.992188 C 563.09375 202.992188 549.550781 198.945313 538.398438 190.796875 C 527.230469 182.664063 520.148438 171.304688 517.152344 156.703125 "/>
<path style=" stroke:none;fill-rule:nonzero;fill:rgb(15.299988%,19.198608%,52.198792%);fill-opacity:1;" d="M 741.660156 150.808594 C 741.203125 142.160156 737.972656 135.570313 731.964844 131.070313 C 725.964844 126.535156 718.015625 124.277344 708.117188 124.277344 C 697.8125 124.277344 689.597656 126.648438 683.472656 131.378906 C 677.367188 136.105469 674.28125 142.585938 674.28125 150.808594 C 674.28125 158.988281 677.367188 165.5 683.472656 170.351563 C 689.597656 175.203125 697.8125 177.621094 708.117188 177.621094 C 718.4375 177.621094 726.59375 175.203125 732.617188 170.351563 C 738.632813 165.5 741.660156 158.988281 741.660156 150.808594 M 648.902344 87.347656 C 651.695313 72.75 658.253906 61.359375 668.550781 53.230469 C 678.855469 45.109375 692.058594 41.011719 708.15625 41.011719 C 726.179688 41.011719 740.617188 45.972656 751.453125 55.859375 C 762.300781 65.71875 767.738281 79.121094 767.738281 96.066406 L 767.738281 200.386719 L 741.660156 200.386719 L 741.660156 190.796875 C 737.972656 194.859375 733.054688 197.914063 726.8125 199.953125 C 720.585938 201.988281 714.351563 202.992188 708.15625 202.992188 C 689.851563 202.992188 675.324219 198.320313 664.464844 188.980469 C 653.605469 179.632813 648.214844 166.898438 648.214844 150.808594 C 648.214844 134.683594 653.605469 121.984375 664.464844 112.765625 C 675.324219 103.5 689.851563 98.871094 708.15625 98.871094 C 714.570313 98.871094 720.703125 99.839844 726.503906 101.765625 C 732.296875 103.707031 737.34375 106.496094 741.660156 110.152344 L 741.660156 95.984375 C 741.660156 86.777344 738.632813 79.527344 732.617188 74.265625 C 726.625 69.035156 718.453125 66.402344 708.15625 66.402344 C 699.546875 66.402344 692.328125 68.488281 686.441406 72.671875 C 680.507813 76.875 676.707031 82.820313 674.996094 90.5625 "/>
<path style=" stroke:none;fill-rule:nonzero;fill:rgb(94.499207%,56.898499%,0%);fill-opacity:1;" d="M 172.785156 19.234375 C 172.785156 27.699219 165.902344 34.601563 157.429688 34.601563 C 148.9375 34.601563 142.0625 27.699219 142.0625 19.234375 C 142.0625 10.75 148.9375 3.878906 157.429688 3.878906 C 165.902344 3.878906 172.785156 10.75 172.785156 19.234375 "/>
<path style=" stroke:none;fill-rule:nonzero;fill:rgb(15.299988%,19.198608%,52.198792%);fill-opacity:1;" d="M 795.378906 67.40625 L 797.996094 67.40625 C 800.714844 67.40625 802.449219 65.914063 802.449219 63.640625 C 802.449219 61.101563 800.605469 59.988281 797.914063 59.988281 C 796.667969 59.988281 795.828125 60.09375 795.378906 60.226563 Z M 792.839844 58.433594 C 794.113281 58.164063 796.007813 57.996094 797.734375 57.996094 C 800.453125 57.996094 802.246094 58.519531 803.480469 59.640625 C 804.449219 60.492188 805.035156 61.847656 805.035156 63.394531 C 805.035156 65.96875 803.367188 67.699219 801.3125 68.402344 L 801.3125 68.492188 C 802.8125 69.027344 803.714844 70.421875 804.210938 72.476563 C 804.871094 75.242188 805.320313 77.152344 805.710938 77.914063 L 803.066406 77.914063 C 802.734375 77.363281 802.300781 75.652344 801.773438 73.195313 C 801.1875 70.46875 800.105469 69.429688 797.796875 69.347656 L 795.378906 69.347656 L 795.378906 77.914063 L 792.839844 77.914063 "/>
<g clip-path="url(#clip1)" clip-rule="nonzero">
<path style=" stroke:none;fill-rule:nonzero;fill:rgb(15.299988%,19.198608%,52.198792%);fill-opacity:1;" d="M 798.246094 83.011719 C 790.3125 83.011719 783.871094 76.574219 783.871094 68.632813 C 783.871094 60.707031 790.3125 54.257813 798.246094 54.257813 C 806.175781 54.257813 812.621094 60.707031 812.621094 68.632813 C 812.621094 76.574219 806.175781 83.011719 798.246094 83.011719 M 798.183594 52.957031 C 789.5625 52.957031 782.5625 59.945313 782.5625 68.574219 C 782.5625 77.203125 789.5625 84.195313 798.183594 84.195313 C 806.824219 84.195313 813.8125 77.203125 813.8125 68.574219 C 813.8125 59.945313 806.824219 52.957031 798.183594 52.957031 "/>
</g>
<path style=" stroke:none;fill-rule:nonzero;fill:rgb(15.299988%,19.198608%,52.198792%);fill-opacity:1;" d="M 70.265625 238.054688 L 70.242188 238.054688 L 60.828125 255.402344 L 72.871094 255.402344 Z M 79.328125 266.578125 C 79.378906 266.984375 79.394531 267.300781 79.363281 267.539063 C 79.34375 267.78125 79.242188 267.960938 79.074219 268.097656 C 78.902344 268.214844 78.640625 268.296875 78.28125 268.335938 C 77.917969 268.367188 77.441406 268.378906 76.835938 268.378906 C 76.4375 268.378906 76.085938 268.371094 75.804688 268.34375 C 75.519531 268.3125 75.292969 268.277344 75.152344 268.214844 C 74.996094 268.15625 74.882813 268.058594 74.808594 267.953125 C 74.742188 267.839844 74.699219 267.710938 74.683594 267.554688 L 73.378906 259.074219 L 58.890625 259.074219 L 54.347656 267.480469 C 54.261719 267.652344 54.152344 267.792969 54.039063 267.914063 C 53.921875 268.027344 53.761719 268.125 53.554688 268.199219 C 53.34375 268.269531 53.078125 268.3125 52.746094 268.34375 C 52.417969 268.371094 52.007813 268.378906 51.523438 268.378906 C 50.984375 268.378906 50.554688 268.367188 50.230469 268.3125 C 49.90625 268.277344 49.6875 268.1875 49.5625 268.058594 C 49.4375 267.945313 49.402344 267.765625 49.453125 267.507813 C 49.507813 267.269531 49.628906 266.960938 49.824219 266.5625 L 67.953125 234.238281 C 68.082031 234.042969 68.210938 233.875 68.359375 233.75 C 68.496094 233.621094 68.679688 233.53125 68.921875 233.449219 C 69.15625 233.378906 69.453125 233.335938 69.8125 233.308594 C 70.164063 233.277344 70.613281 233.261719 71.125 233.261719 C 71.71875 233.261719 72.195313 233.277344 72.5625 233.308594 C 72.929688 233.335938 73.230469 233.378906 73.453125 233.449219 C 73.671875 233.53125 73.828125 233.628906 73.925781 233.765625 C 74.015625 233.894531 74.074219 234.066406 74.117188 234.257813 "/>
<path style=" stroke:none;fill-rule:nonzero;fill:rgb(15.299988%,19.198608%,52.198792%);fill-opacity:1;" d="M 105.65625 245.472656 C 105.65625 245.796875 105.617188 246.125 105.566406 246.472656 C 105.492188 246.8125 105.40625 247.125 105.28125 247.417969 C 105.148438 247.71875 105.003906 247.976563 104.839844 248.160156 C 104.664063 248.359375 104.472656 248.453125 104.257813 248.453125 C 104.003906 248.453125 103.738281 248.335938 103.480469 248.066406 C 103.203125 247.808594 102.851563 247.515625 102.410156 247.203125 C 101.972656 246.871094 101.421875 246.585938 100.75 246.316406 C 100.070313 246.042969 99.21875 245.910156 98.183594 245.910156 C 97.027344 245.910156 96.011719 246.144531 95.128906 246.617188 C 94.234375 247.09375 93.472656 247.710938 92.820313 248.476563 C 92.160156 249.230469 91.621094 250.101563 91.191406 251.078125 C 90.757813 252.039063 90.414063 253.015625 90.136719 254.003906 C 89.875 254.984375 89.675781 255.945313 89.5625 256.859375 C 89.445313 257.789063 89.382813 258.59375 89.382813 259.269531 C 89.382813 261.117188 89.789063 262.515625 90.597656 263.460938 C 91.40625 264.410156 92.605469 264.898438 94.199219 264.898438 C 95.367188 264.898438 96.363281 264.746094 97.199219 264.460938 C 98.03125 264.175781 98.742188 263.84375 99.320313 263.476563 C 99.902344 263.109375 100.386719 262.785156 100.757813 262.492188 C 101.140625 262.214844 101.464844 262.074219 101.757813 262.074219 C 101.898438 262.074219 102.011719 262.132813 102.089844 262.269531 C 102.175781 262.402344 102.210938 262.597656 102.210938 262.84375 C 102.210938 263.0625 102.199219 263.320313 102.15625 263.605469 C 102.125 263.90625 102.066406 264.21875 101.980469 264.535156 C 101.90625 264.851563 101.804688 265.136719 101.691406 265.398438 C 101.574219 265.667969 101.40625 265.917969 101.1875 266.144531 C 100.972656 266.367188 100.605469 266.636719 100.0625 266.960938 C 99.527344 267.285156 98.90625 267.570313 98.191406 267.839844 C 97.480469 268.09375 96.722656 268.3125 95.886719 268.488281 C 95.066406 268.644531 94.214844 268.742188 93.34375 268.742188 C 90.449219 268.742188 88.300781 267.996094 86.867188 266.535156 C 85.445313 265.054688 84.738281 262.875 84.738281 259.96875 C 84.738281 258.878906 84.824219 257.6875 85.015625 256.378906 C 85.207031 255.078125 85.523438 253.773438 85.96875 252.457031 C 86.421875 251.136719 86.992188 249.859375 87.691406 248.628906 C 88.394531 247.378906 89.253906 246.285156 90.273438 245.324219 C 91.300781 244.375 92.480469 243.605469 93.820313 243.027344 C 95.167969 242.453125 96.714844 242.167969 98.449219 242.167969 C 99.167969 242.167969 99.851563 242.230469 100.519531 242.351563 C 101.179688 242.453125 101.804688 242.621094 102.390625 242.816406 C 102.976563 243 103.496094 243.25 103.980469 243.550781 C 104.449219 243.851563 104.820313 244.113281 105.074219 244.347656 C 105.332031 244.578125 105.492188 244.777344 105.566406 244.933594 C 105.617188 245.097656 105.65625 245.277344 105.65625 245.472656 "/>
<path style=" stroke:none;fill-rule:nonzero;fill:rgb(15.299988%,19.198608%,52.198792%);fill-opacity:1;" d="M 128.078125 245.472656 C 128.078125 245.796875 128.050781 246.125 127.996094 246.472656 C 127.925781 246.8125 127.828125 247.125 127.710938 247.417969 C 127.578125 247.71875 127.433594 247.976563 127.265625 248.160156 C 127.089844 248.359375 126.894531 248.453125 126.683594 248.453125 C 126.433594 248.453125 126.171875 248.335938 125.90625 248.066406 C 125.636719 247.808594 125.28125 247.515625 124.84375 247.203125 C 124.402344 246.871094 123.84375 246.585938 123.175781 246.316406 C 122.503906 246.042969 121.644531 245.910156 120.605469 245.910156 C 119.457031 245.910156 118.441406 246.144531 117.554688 246.617188 C 116.667969 247.09375 115.894531 247.710938 115.242188 248.476563 C 114.582031 249.230469 114.046875 250.101563 113.613281 251.078125 C 113.183594 252.039063 112.835938 253.015625 112.566406 254.003906 C 112.300781 254.984375 112.105469 255.945313 111.992188 256.859375 C 111.867188 257.789063 111.8125 258.59375 111.8125 259.269531 C 111.8125 261.117188 112.214844 262.515625 113.019531 263.460938 C 113.828125 264.410156 115.03125 264.898438 116.628906 264.898438 C 117.789063 264.898438 118.789063 264.746094 119.628906 264.460938 C 120.460938 264.175781 121.164063 263.84375 121.753906 263.476563 C 122.328125 263.109375 122.8125 262.785156 123.1875 262.492188 C 123.566406 262.214844 123.894531 262.074219 124.1875 262.074219 C 124.328125 262.074219 124.445313 262.132813 124.519531 262.269531 C 124.597656 262.402344 124.636719 262.597656 124.636719 262.84375 C 124.636719 263.0625 124.621094 263.320313 124.585938 263.605469 C 124.550781 263.90625 124.488281 264.21875 124.410156 264.535156 C 124.335938 264.851563 124.234375 265.136719 124.121094 265.398438 C 123.996094 265.667969 123.835938 265.917969 123.617188 266.144531 C 123.402344 266.367188 123.027344 266.636719 122.488281 266.960938 C 121.949219 267.285156 121.328125 267.570313 120.613281 267.839844 C 119.910156 268.09375 119.144531 268.3125 118.320313 268.488281 C 117.496094 268.644531 116.644531 268.742188 115.765625 268.742188 C 112.882813 268.742188 110.730469 267.996094 109.296875 266.535156 C 107.867188 265.054688 107.164063 262.875 107.164063 259.96875 C 107.164063 258.878906 107.253906 257.6875 107.445313 256.378906 C 107.632813 255.078125 107.953125 253.773438 108.398438 252.457031 C 108.851563 251.136719 109.414063 249.859375 110.121094 248.628906 C 110.816406 247.378906 111.675781 246.285156 112.703125 245.324219 C 113.722656 244.375 114.90625 243.605469 116.25 243.027344 C 117.597656 242.453125 119.144531 242.167969 120.871094 242.167969 C 121.597656 242.167969 122.28125 242.230469 122.941406 242.351563 C 123.609375 242.453125 124.234375 242.621094 124.8125 242.816406 C 125.398438 243 125.929688 243.25 126.40625 243.550781 C 126.871094 243.851563 127.242188 244.113281 127.503906 244.347656 C 127.765625 244.578125 127.925781 244.777344 127.996094 244.933594 C 128.050781 245.097656 128.078125 245.277344 128.078125 245.472656 "/>
<path style=" stroke:none;fill-rule:nonzero;fill:rgb(15.299988%,19.198608%,52.198792%);fill-opacity:1;" d="M 148.003906 248.703125 C 148.003906 247.789063 147.660156 247.050781 146.925781 246.480469 C 146.222656 245.910156 145.1875 245.640625 143.867188 245.640625 C 142.707031 245.640625 141.671875 245.835938 140.777344 246.238281 C 139.875 246.644531 139.082031 247.183594 138.398438 247.867188 C 137.707031 248.546875 137.113281 249.347656 136.621094 250.25 C 136.128906 251.152344 135.730469 252.105469 135.429688 253.109375 L 138.164063 253.109375 C 140.046875 253.109375 141.621094 253 142.890625 252.757813 C 144.152344 252.527344 145.15625 252.21875 145.921875 251.804688 C 146.691406 251.40625 147.21875 250.941406 147.535156 250.386719 C 147.851563 249.859375 148.003906 249.289063 148.003906 248.703125 M 152.554688 248.304688 C 152.554688 249.539063 152.261719 250.65625 151.695313 251.632813 C 151.109375 252.609375 150.230469 253.457031 149.003906 254.15625 C 147.789063 254.859375 146.230469 255.394531 144.328125 255.777344 C 142.429688 256.152344 140.152344 256.34375 137.496094 256.34375 L 134.644531 256.34375 C 134.515625 256.929688 134.4375 257.507813 134.394531 258.0625 C 134.339844 258.609375 134.320313 259.136719 134.320313 259.625 C 134.320313 261.410156 134.769531 262.777344 135.652344 263.730469 C 136.546875 264.683594 137.972656 265.152344 139.96875 265.152344 C 141.113281 265.152344 142.152344 265.074219 143.058594 264.902344 C 143.976563 264.730469 144.769531 264.550781 145.441406 264.347656 C 146.113281 264.160156 146.664063 263.972656 147.097656 263.800781 C 147.527344 263.628906 147.820313 263.542969 147.984375 263.542969 C 148.144531 263.542969 148.265625 263.605469 148.351563 263.71875 C 148.425781 263.832031 148.46875 264.003906 148.46875 264.222656 C 148.46875 264.398438 148.445313 264.609375 148.410156 264.859375 C 148.371094 265.121094 148.320313 265.378906 148.25 265.632813 C 148.179688 265.886719 148.089844 266.136719 147.96875 266.367188 C 147.851563 266.601563 147.71875 266.804688 147.574219 266.96875 C 147.359375 267.171875 146.980469 267.390625 146.4375 267.585938 C 145.890625 267.796875 145.238281 267.988281 144.484375 268.164063 C 143.730469 268.320313 142.90625 268.464844 142.011719 268.574219 C 141.113281 268.683594 140.21875 268.734375 139.320313 268.734375 C 137.730469 268.734375 136.328125 268.5625 135.128906 268.191406 C 133.929688 267.832031 132.929688 267.285156 132.132813 266.550781 C 131.332031 265.796875 130.738281 264.875 130.339844 263.769531 C 129.945313 262.648438 129.753906 261.34375 129.753906 259.835938 C 129.753906 258.679688 129.863281 257.417969 130.085938 256.078125 C 130.304688 254.75 130.664063 253.429688 131.152344 252.121094 C 131.632813 250.808594 132.261719 249.550781 133.027344 248.347656 C 133.804688 247.15625 134.722656 246.089844 135.792969 245.1875 C 136.851563 244.257813 138.082031 243.527344 139.484375 242.964844 C 140.882813 242.410156 142.457031 242.140625 144.21875 242.140625 C 145.730469 242.140625 146.996094 242.320313 148.050781 242.710938 C 149.097656 243.078125 149.964844 243.566406 150.628906 244.152344 C 151.300781 244.746094 151.785156 245.40625 152.09375 246.136719 C 152.394531 246.855469 152.554688 247.585938 152.554688 248.304688 "/>
<path style=" stroke:none;fill-rule:nonzero;fill:rgb(15.299988%,19.198608%,52.198792%);fill-opacity:1;" d="M 160.164063 267.554688 C 160.128906 267.699219 160.066406 267.824219 159.972656 267.914063 C 159.882813 268.011719 159.753906 268.09375 159.566406 268.171875 C 159.386719 268.246094 159.160156 268.296875 158.859375 268.335938 C 158.558594 268.367188 158.195313 268.378906 157.765625 268.378906 C 157.320313 268.378906 156.949219 268.367188 156.683594 268.335938 C 156.398438 268.296875 156.179688 268.246094 156.039063 268.171875 C 155.882813 268.09375 155.78125 268.011719 155.738281 267.914063 C 155.6875 267.824219 155.6875 267.699219 155.722656 267.554688 L 162.878906 231.625 C 162.910156 231.480469 162.972656 231.355469 163.050781 231.246094 C 163.136719 231.144531 163.265625 231.050781 163.457031 230.980469 C 163.648438 230.910156 163.878906 230.859375 164.179688 230.820313 C 164.480469 230.785156 164.851563 230.769531 165.292969 230.769531 C 165.734375 230.769531 166.078125 230.785156 166.363281 230.820313 C 166.644531 230.859375 166.855469 230.910156 167.003906 230.980469 C 167.15625 231.050781 167.25 231.144531 167.289063 231.246094 C 167.328125 231.355469 167.335938 231.480469 167.3125 231.625 "/>
<path style=" stroke:none;fill-rule:nonzero;fill:rgb(15.299988%,19.198608%,52.198792%);fill-opacity:1;" d="M 186.945313 248.703125 C 186.945313 247.789063 186.589844 247.050781 185.875 246.480469 C 185.152344 245.910156 184.128906 245.640625 182.804688 245.640625 C 181.636719 245.640625 180.605469 245.835938 179.714844 246.238281 C 178.8125 246.644531 178.019531 247.183594 177.328125 247.867188 C 176.648438 248.546875 176.046875 249.347656 175.5625 250.25 C 175.070313 251.152344 174.667969 252.105469 174.363281 253.109375 L 177.109375 253.109375 C 178.984375 253.109375 180.5625 253 181.820313 252.757813 C 183.082031 252.527344 184.097656 252.21875 184.859375 251.804688 C 185.628906 251.40625 186.160156 250.941406 186.476563 250.386719 C 186.789063 249.859375 186.945313 249.289063 186.945313 248.703125 M 191.488281 248.304688 C 191.488281 249.539063 191.207031 250.65625 190.636719 251.632813 C 190.0625 252.609375 189.160156 253.457031 187.941406 254.15625 C 186.722656 254.859375 185.167969 255.394531 183.261719 255.777344 C 181.359375 256.152344 179.085938 256.34375 176.429688 256.34375 L 173.585938 256.34375 C 173.464844 256.929688 173.367188 257.507813 173.332031 258.0625 C 173.285156 258.609375 173.261719 259.136719 173.261719 259.625 C 173.261719 261.410156 173.699219 262.777344 174.59375 263.730469 C 175.476563 264.683594 176.914063 265.152344 178.90625 265.152344 C 180.054688 265.152344 181.09375 265.074219 181.996094 264.902344 C 182.914063 264.730469 183.707031 264.550781 184.375 264.347656 C 185.050781 264.160156 185.605469 263.972656 186.027344 263.800781 C 186.460938 263.628906 186.761719 263.542969 186.914063 263.542969 C 187.082031 263.542969 187.199219 263.605469 187.28125 263.71875 C 187.367188 263.832031 187.40625 264.003906 187.40625 264.222656 C 187.40625 264.398438 187.382813 264.609375 187.347656 264.859375 C 187.320313 265.121094 187.257813 265.378906 187.191406 265.632813 C 187.121094 265.886719 187.03125 266.136719 186.90625 266.367188 C 186.789063 266.601563 186.65625 266.804688 186.511719 266.96875 C 186.296875 267.171875 185.914063 267.390625 185.367188 267.585938 C 184.820313 267.796875 184.175781 267.988281 183.421875 268.164063 C 182.667969 268.320313 181.84375 268.464844 180.953125 268.574219 C 180.054688 268.683594 179.160156 268.734375 178.261719 268.734375 C 176.664063 268.734375 175.269531 268.5625 174.0625 268.191406 C 172.859375 267.832031 171.863281 267.285156 171.070313 266.550781 C 170.269531 265.796875 169.671875 264.875 169.277344 263.769531 C 168.882813 262.648438 168.691406 261.34375 168.691406 259.835938 C 168.691406 258.679688 168.800781 257.417969 169.023438 256.078125 C 169.257813 254.75 169.601563 253.429688 170.085938 252.121094 C 170.570313 250.808594 171.203125 249.550781 171.972656 248.347656 C 172.738281 247.15625 173.652344 246.089844 174.722656 245.1875 C 175.789063 244.257813 177.023438 243.527344 178.421875 242.964844 C 179.824219 242.410156 181.398438 242.140625 183.15625 242.140625 C 184.660156 242.140625 185.9375 242.320313 186.980469 242.710938 C 188.039063 243.078125 188.898438 243.566406 189.566406 244.152344 C 190.246094 244.746094 190.730469 245.40625 191.039063 246.136719 C 191.34375 246.855469 191.488281 247.585938 191.488281 248.304688 "/>
<path style=" stroke:none;fill-rule:nonzero;fill:rgb(15.299988%,19.198608%,52.198792%);fill-opacity:1;" d="M 213.191406 243.371094 C 213.191406 243.453125 213.183594 243.582031 213.148438 243.792969 C 213.117188 244.003906 213.089844 244.242188 213.050781 244.503906 C 213.019531 244.773438 212.964844 245.058594 212.898438 245.339844 C 212.824219 245.625 212.726563 245.894531 212.621094 246.128906 C 212.511719 246.375 212.40625 246.585938 212.289063 246.734375 C 212.171875 246.898438 212.046875 246.984375 211.898438 246.984375 C 211.757813 246.984375 211.597656 246.953125 211.429688 246.886719 C 211.261719 246.824219 211.066406 246.742188 210.859375 246.660156 C 210.660156 246.570313 210.417969 246.496094 210.152344 246.429688 C 209.882813 246.367188 209.574219 246.339844 209.214844 246.339844 C 208.605469 246.339844 207.898438 246.601563 207.097656 247.125 C 206.308594 247.652344 205.523438 248.386719 204.753906 249.320313 C 203.976563 250.25 203.277344 251.347656 202.636719 252.625 C 202 253.898438 201.53125 255.28125 201.230469 256.769531 L 199.101563 267.546875 C 199.070313 267.703125 199 267.816406 198.910156 267.917969 C 198.820313 268.007813 198.683594 268.101563 198.507813 268.171875 C 198.332031 268.246094 198.089844 268.292969 197.792969 268.335938 C 197.5 268.367188 197.136719 268.382813 196.707031 268.382813 C 196.261719 268.382813 195.894531 268.367188 195.613281 268.335938 C 195.335938 268.292969 195.125 268.246094 194.96875 268.171875 C 194.824219 268.101563 194.722656 268.007813 194.667969 267.917969 C 194.632813 267.816406 194.625 267.703125 194.660156 267.546875 L 199.476563 243.324219 C 199.492188 243.195313 199.546875 243.070313 199.636719 242.964844 C 199.730469 242.867188 199.859375 242.777344 200.046875 242.710938 C 200.222656 242.636719 200.4375 242.582031 200.699219 242.558594 C 200.960938 242.527344 201.265625 242.515625 201.628906 242.515625 C 202.007813 242.515625 202.316406 242.527344 202.558594 242.558594 C 202.800781 242.582031 202.992188 242.636719 203.121094 242.710938 C 203.253906 242.777344 203.34375 242.867188 203.375 242.964844 C 203.414063 243.070313 203.414063 243.195313 203.398438 243.324219 L 202.523438 247.734375 C 202.929688 247.007813 203.414063 246.285156 203.980469 245.609375 C 204.546875 244.933594 205.160156 244.332031 205.820313 243.820313 C 206.484375 243.308594 207.183594 242.898438 207.90625 242.597656 C 208.636719 242.289063 209.34375 242.140625 210.042969 242.140625 C 210.351563 242.140625 210.660156 242.167969 210.96875 242.207031 C 211.28125 242.253906 211.574219 242.304688 211.851563 242.363281 C 212.113281 242.425781 212.347656 242.5 212.558594 242.582031 C 212.765625 242.664063 212.921875 242.753906 213.027344 242.867188 C 213.132813 242.964844 213.191406 243.144531 213.191406 243.371094 "/>
<path style=" stroke:none;fill-rule:nonzero;fill:rgb(15.299988%,19.198608%,52.198792%);fill-opacity:1;" d="M 232.792969 249.671875 C 231.953125 248.433594 231.039063 247.5 230.0625 246.886719 C 229.082031 246.269531 227.984375 245.953125 226.769531 245.953125 C 225.800781 245.953125 224.921875 246.1875 224.148438 246.644531 C 223.378906 247.105469 222.675781 247.703125 222.078125 248.460938 C 221.480469 249.214844 220.957031 250.070313 220.519531 251.03125 C 220.078125 251.992188 219.726563 252.984375 219.4375 254.003906 C 219.171875 255.019531 218.964844 256.027344 218.824219 257.011719 C 218.695313 257.992188 218.625 258.886719 218.625 259.667969 C 218.625 260.300781 218.675781 260.914063 218.777344 261.539063 C 218.871094 262.160156 219.0625 262.726563 219.339844 263.242188 C 219.617188 263.746094 219.996094 264.160156 220.480469 264.46875 C 220.972656 264.78125 221.59375 264.941406 222.363281 264.941406 C 223.347656 264.941406 224.339844 264.671875 225.332031 264.121094 C 226.328125 263.574219 227.253906 262.816406 228.113281 261.847656 C 228.980469 260.878906 229.738281 259.742188 230.410156 258.4375 C 231.070313 257.128906 231.5625 255.6875 231.882813 254.109375 Z M 233.628906 267.554688 C 233.558594 267.855469 233.359375 268.066406 233.039063 268.199219 C 232.714844 268.320313 232.175781 268.378906 231.421875 268.378906 C 231.070313 268.378906 230.769531 268.367188 230.539063 268.335938 C 230.300781 268.300781 230.105469 268.246094 229.976563 268.1875 C 229.828125 268.125 229.738281 268.035156 229.675781 267.945313 C 229.621094 267.847656 229.621094 267.722656 229.675781 267.554688 L 230.5625 262.988281 C 230.328125 263.542969 229.910156 264.191406 229.300781 264.867188 C 228.691406 265.542969 227.96875 266.171875 227.128906 266.742188 C 226.300781 267.316406 225.367188 267.792969 224.355469 268.171875 C 223.324219 268.554688 222.285156 268.742188 221.230469 268.742188 C 219.804688 268.742188 218.609375 268.484375 217.671875 267.984375 C 216.730469 267.480469 215.980469 266.816406 215.425781 265.992188 C 214.871094 265.164063 214.484375 264.234375 214.28125 263.199219 C 214.078125 262.160156 213.972656 261.082031 213.972656 260 C 213.972656 258.992188 214.0625 257.851563 214.257813 256.574219 C 214.441406 255.296875 214.746094 254.003906 215.171875 252.683594 C 215.585938 251.359375 216.132813 250.070313 216.8125 248.808594 C 217.484375 247.5625 218.292969 246.429688 219.246094 245.4375 C 220.191406 244.445313 221.296875 243.640625 222.558594 243.039063 C 223.800781 242.441406 225.230469 242.140625 226.824219 242.140625 C 228.421875 242.140625 229.792969 242.453125 230.921875 243.101563 C 232.0625 243.761719 233.082031 244.648438 233.976563 245.765625 L 234.492188 243.316406 C 234.5625 243.039063 234.769531 242.835938 235.113281 242.710938 C 235.453125 242.582031 235.976563 242.515625 236.699219 242.515625 C 237.050781 242.515625 237.351563 242.527344 237.601563 242.558594 C 237.835938 242.582031 238.027344 242.636719 238.175781 242.710938 C 238.320313 242.769531 238.40625 242.867188 238.453125 242.964844 C 238.476563 243.070313 238.480469 243.195313 238.46875 243.316406 "/>
<path style=" stroke:none;fill-rule:nonzero;fill:rgb(15.299988%,19.198608%,52.198792%);fill-opacity:1;" d="M 271.253906 235.207031 C 271.15625 235.710938 271.039063 236.121094 270.878906 236.46875 C 270.734375 236.808594 270.527344 237.085938 270.28125 237.285156 C 270.035156 237.496094 269.71875 237.632813 269.359375 237.730469 C 268.980469 237.820313 268.535156 237.863281 267.996094 237.863281 C 267.460938 237.863281 267.027344 237.820313 266.6875 237.730469 C 266.359375 237.632813 266.121094 237.496094 265.96875 237.285156 C 265.8125 237.085938 265.726563 236.808594 265.703125 236.46875 C 265.6875 236.121094 265.726563 235.710938 265.8125 235.207031 C 265.902344 234.703125 266.027344 234.289063 266.175781 233.953125 C 266.335938 233.621094 266.542969 233.34375 266.796875 233.125 C 267.058594 232.886719 267.363281 232.734375 267.722656 232.660156 C 268.089844 232.585938 268.535156 232.539063 269.074219 232.539063 C 269.609375 232.539063 270.042969 232.585938 270.371094 232.660156 C 270.703125 232.734375 270.953125 232.886719 271.121094 233.125 C 271.273438 233.34375 271.363281 233.621094 271.378906 233.953125 C 271.40625 234.289063 271.355469 234.703125 271.253906 235.207031 M 264.3125 267.554688 C 264.273438 267.703125 264.214844 267.8125 264.128906 267.917969 C 264.039063 268.019531 263.898438 268.097656 263.722656 268.171875 C 263.546875 268.246094 263.304688 268.300781 263.003906 268.335938 C 262.710938 268.367188 262.351563 268.382813 261.921875 268.382813 C 261.484375 268.382813 261.128906 268.367188 260.847656 268.335938 C 260.550781 268.300781 260.339844 268.246094 260.183594 268.171875 C 260.039063 268.097656 259.929688 268.019531 259.878906 267.917969 C 259.820313 267.8125 259.8125 267.703125 259.851563 267.554688 L 264.089844 246.328125 L 251.59375 246.328125 L 248.878906 259.835938 C 248.808594 260.21875 248.738281 260.628906 248.691406 261.097656 C 248.628906 261.566406 248.605469 261.953125 248.605469 262.253906 C 248.605469 263.167969 248.800781 263.828125 249.1875 264.25 C 249.566406 264.679688 250.191406 264.894531 251.054688 264.894531 C 251.539063 264.894531 251.960938 264.851563 252.3125 264.769531 C 252.675781 264.6875 252.980469 264.597656 253.246094 264.507813 C 253.507813 264.421875 253.730469 264.339844 253.933594 264.25 C 254.121094 264.175781 254.300781 264.136719 254.4375 264.136719 C 254.585938 264.136719 254.699219 264.191406 254.785156 264.28125 C 254.859375 264.386719 254.898438 264.566406 254.898438 264.835938 C 254.898438 265.066406 254.875 265.324219 254.828125 265.601563 C 254.785156 265.871094 254.730469 266.15625 254.652344 266.429688 C 254.585938 266.691406 254.5 266.933594 254.390625 267.148438 C 254.285156 267.367188 254.167969 267.53125 254.039063 267.652344 C 253.890625 267.796875 253.675781 267.917969 253.390625 268.035156 C 253.105469 268.164063 252.773438 268.273438 252.398438 268.367188 C 252.023438 268.476563 251.621094 268.554688 251.199219 268.597656 C 250.785156 268.652344 250.359375 268.683594 249.949219 268.683594 C 248.945313 268.683594 248.085938 268.574219 247.347656 268.367188 C 246.601563 268.140625 245.984375 267.8125 245.492188 267.351563 C 244.984375 266.902344 244.613281 266.324219 244.378906 265.632813 C 244.121094 264.941406 244.011719 264.105469 244.011719 263.140625 C 244.011719 262.929688 244.019531 262.6875 244.03125 262.425781 C 244.054688 262.171875 244.085938 261.898438 244.121094 261.605469 C 244.179688 261.320313 244.214844 261.035156 244.261719 260.75 C 244.308594 260.464844 244.355469 260.203125 244.414063 259.9375 L 247.132813 246.328125 L 243.769531 246.328125 C 243.578125 246.328125 243.417969 246.285156 243.308594 246.15625 C 243.203125 246.046875 243.152344 245.820313 243.152344 245.472656 C 243.152344 245.226563 243.175781 244.933594 243.230469 244.601563 C 243.285156 244.269531 243.371094 243.957031 243.476563 243.671875 C 243.578125 243.386719 243.71875 243.144531 243.886719 242.949219 C 244.0625 242.753906 244.253906 242.648438 244.496094 242.648438 L 247.886719 242.648438 L 249.039063 236.894531 C 249.054688 236.769531 249.113281 236.65625 249.207031 236.542969 C 249.316406 236.4375 249.453125 236.339844 249.632813 236.265625 C 249.808594 236.183594 250.046875 236.121094 250.339844 236.085938 C 250.640625 236.054688 251 236.039063 251.433594 236.039063 C 251.855469 236.039063 252.222656 236.054688 252.503906 236.085938 C 252.796875 236.121094 253.015625 236.183594 253.171875 236.265625 C 253.316406 236.339844 253.414063 236.4375 253.464844 236.542969 C 253.507813 236.65625 253.515625 236.769531 253.472656 236.894531 L 252.3125 242.648438 L 267.890625 242.648438 C 268.425781 242.648438 268.773438 242.769531 268.925781 243.011719 C 269.074219 243.25 269.097656 243.609375 268.992188 244.074219 "/>
<path style=" stroke:none;fill-rule:nonzero;fill:rgb(15.299988%,19.198608%,52.198792%);fill-opacity:1;" d="M 296.179688 248.703125 C 296.179688 249.335938 296.136719 249.941406 296.070313 250.550781 C 296 251.167969 295.902344 251.789063 295.777344 252.433594 L 292.730469 267.546875 C 292.695313 267.707031 292.640625 267.816406 292.5625 267.917969 C 292.476563 268.007813 292.339844 268.101563 292.152344 268.171875 C 291.96875 268.246094 291.726563 268.292969 291.441406 268.335938 C 291.160156 268.367188 290.785156 268.382813 290.339844 268.382813 C 289.90625 268.382813 289.554688 268.367188 289.28125 268.335938 C 289.003906 268.292969 288.777344 268.246094 288.632813 268.171875 C 288.480469 268.101563 288.378906 268.007813 288.34375 267.917969 C 288.292969 267.816406 288.277344 267.707031 288.300781 267.546875 L 291.285156 252.59375 C 291.410156 252.054688 291.492188 251.511719 291.539063 250.984375 C 291.578125 250.46875 291.601563 250.011719 291.601563 249.613281 C 291.601563 248.523438 291.371094 247.636719 290.902344 246.96875 C 290.441406 246.300781 289.664063 245.960938 288.570313 245.960938 C 287.617188 245.960938 286.640625 246.238281 285.65625 246.78125 C 284.65625 247.320313 283.726563 248.070313 282.882813 249.03125 C 282.027344 249.996094 281.265625 251.144531 280.59375 252.460938 C 279.917969 253.773438 279.433594 255.191406 279.125 256.738281 L 276.980469 267.546875 C 276.933594 267.707031 276.871094 267.816406 276.789063 267.917969 C 276.695313 268.007813 276.566406 268.101563 276.382813 268.171875 C 276.203125 268.246094 275.964844 268.292969 275.675781 268.335938 C 275.375 268.367188 275.011719 268.382813 274.582031 268.382813 C 274.136719 268.382813 273.773438 268.367188 273.488281 268.335938 C 273.210938 268.292969 272.996094 268.246094 272.84375 268.171875 C 272.695313 268.101563 272.597656 268.007813 272.558594 267.917969 C 272.507813 267.816406 272.507813 267.707031 272.542969 267.546875 L 277.402344 243.324219 C 277.429688 243.195313 277.472656 243.078125 277.554688 242.964844 C 277.636719 242.867188 277.757813 242.777344 277.9375 242.710938 C 278.105469 242.636719 278.320313 242.582031 278.574219 242.558594 C 278.832031 242.527344 279.148438 242.515625 279.507813 242.515625 C 279.882813 242.515625 280.1875 242.527344 280.433594 242.558594 C 280.671875 242.582031 280.859375 242.636719 280.996094 242.710938 C 281.136719 242.777344 281.21875 242.867188 281.246094 242.964844 C 281.289063 243.078125 281.296875 243.195313 281.28125 243.324219 L 280.367188 247.953125 C 280.636719 247.34375 281.070313 246.695313 281.679688 246.015625 C 282.289063 245.332031 283.015625 244.707031 283.867188 244.128906 C 284.703125 243.550781 285.632813 243.078125 286.640625 242.710938 C 287.65625 242.320313 288.710938 242.140625 289.808594 242.140625 C 291 242.140625 292.011719 242.320313 292.8125 242.695313 C 293.625 243.0625 294.277344 243.535156 294.777344 244.144531 C 295.277344 244.746094 295.636719 245.433594 295.855469 246.222656 C 296.070313 247.019531 296.179688 247.847656 296.179688 248.703125 "/>
<g clip-path="url(#clip2)" clip-rule="nonzero">
<path style=" stroke:none;fill-rule:nonzero;fill:rgb(15.299988%,19.198608%,52.198792%);fill-opacity:1;" d="M 320.109375 249.671875 C 319.269531 248.433594 318.363281 247.5 317.378906 246.886719 C 316.402344 246.269531 315.300781 245.953125 314.085938 245.953125 C 313.113281 245.953125 312.246094 246.1875 311.480469 246.628906 C 310.703125 247.082031 310.019531 247.683594 309.417969 248.417969 C 308.816406 249.167969 308.296875 250.019531 307.847656 250.984375 C 307.402344 251.953125 307.03125 252.953125 306.757813 253.960938 C 306.480469 254.96875 306.273438 255.980469 306.144531 256.972656 C 306.011719 257.972656 305.941406 258.863281 305.941406 259.667969 C 305.941406 260.433594 306.011719 261.15625 306.144531 261.800781 C 306.273438 262.445313 306.488281 263.003906 306.78125 263.453125 C 307.082031 263.902344 307.464844 264.28125 307.941406 264.535156 C 308.417969 264.808594 308.996094 264.941406 309.679688 264.941406 C 310.664063 264.941406 311.648438 264.671875 312.644531 264.121094 C 313.644531 263.574219 314.570313 262.816406 315.433594 261.847656 C 316.292969 260.878906 317.046875 259.742188 317.714844 258.421875 C 318.382813 257.101563 318.871094 255.664063 319.191406 254.109375 Z M 320.539063 269.460938 C 320.253906 270.902344 319.792969 272.152344 319.152344 273.21875 C 318.515625 274.308594 317.710938 275.191406 316.71875 275.90625 C 315.734375 276.605469 314.570313 277.148438 313.210938 277.5 C 311.855469 277.859375 310.324219 278.039063 308.601563 278.039063 C 307.109375 278.039063 305.753906 277.890625 304.527344 277.597656 C 303.304688 277.304688 302.320313 276.941406 301.578125 276.53125 C 301.3125 276.359375 301.125 276.183594 301.035156 276.003906 C 300.933594 275.839844 300.882813 275.621094 300.882813 275.34375 C 300.882813 275.246094 300.882813 275.097656 300.894531 274.894531 C 300.902344 274.695313 300.933594 274.496094 300.976563 274.308594 C 301.019531 274.105469 301.070313 273.894531 301.144531 273.683594 C 301.203125 273.472656 301.285156 273.269531 301.378906 273.105469 C 301.480469 272.933594 301.59375 272.796875 301.738281 272.699219 C 301.878906 272.601563 302.035156 272.558594 302.203125 272.558594 C 302.421875 272.558594 302.6875 272.648438 303.003906 272.84375 C 303.324219 273.023438 303.757813 273.234375 304.296875 273.472656 C 304.835938 273.707031 305.503906 273.914063 306.304688 274.117188 C 307.105469 274.316406 308.078125 274.402344 309.246094 274.402344 C 310.210938 274.402344 311.089844 274.316406 311.871094 274.117188 C 312.644531 273.914063 313.328125 273.621094 313.910156 273.21875 C 314.496094 272.84375 314.972656 272.332031 315.339844 271.722656 C 315.699219 271.113281 315.976563 270.386719 316.152344 269.542969 C 316.464844 267.914063 316.769531 266.554688 317.070313 265.484375 C 317.378906 264.402344 317.628906 263.574219 317.824219 262.988281 C 317.539063 263.648438 317.078125 264.316406 316.453125 264.984375 C 315.824219 265.652344 315.101563 266.269531 314.28125 266.832031 C 313.453125 267.402344 312.539063 267.863281 311.558594 268.214844 C 310.570313 268.5625 309.570313 268.742188 308.550781 268.742188 C 307.203125 268.742188 306.0625 268.507813 305.125 268.066406 C 304.195313 267.613281 303.449219 267 302.886719 266.226563 C 302.320313 265.4375 301.910156 264.519531 301.664063 263.453125 C 301.410156 262.386719 301.285156 261.230469 301.285156 260 C 301.285156 258.953125 301.378906 257.789063 301.578125 256.5 C 301.78125 255.191406 302.097656 253.878906 302.523438 252.5625 C 302.949219 251.242188 303.503906 249.964844 304.183594 248.71875 C 304.851563 247.464844 305.65625 246.359375 306.609375 245.382813 C 307.566406 244.40625 308.664063 243.617188 309.902344 243.027344 C 311.15625 242.425781 312.5625 242.140625 314.140625 242.140625 C 315.734375 242.140625 317.101563 242.453125 318.238281 243.101563 C 319.378906 243.761719 320.394531 244.648438 321.289063 245.765625 L 321.808594 243.316406 C 321.878906 243.039063 322.078125 242.835938 322.421875 242.710938 C 322.757813 242.582031 323.292969 242.515625 324.007813 242.515625 C 324.371094 242.515625 324.667969 242.527344 324.90625 242.558594 C 325.152344 242.582031 325.347656 242.636719 325.492188 242.710938 C 325.628906 242.769531 325.722656 242.867188 325.761719 242.964844 C 325.789063 243.070313 325.796875 243.195313 325.789063 243.316406 "/>
</g>
<path style=" stroke:none;fill-rule:nonzero;fill:rgb(15.299988%,19.198608%,52.198792%);fill-opacity:1;" d="M 363.214844 241.035156 C 363.214844 240.441406 363.113281 239.917969 362.925781 239.441406 C 362.722656 238.984375 362.402344 238.59375 361.96875 238.25 C 361.53125 237.917969 360.976563 237.664063 360.296875 237.46875 C 359.621094 237.289063 358.738281 237.1875 357.648438 237.1875 L 352.757813 237.1875 L 350.527344 248.457031 L 355.769531 248.457031 C 357.183594 248.457031 358.34375 248.222656 359.261719 247.765625 C 360.179688 247.292969 360.921875 246.695313 361.507813 245.96875 C 362.09375 245.25 362.519531 244.453125 362.800781 243.566406 C 363.078125 242.6875 363.214844 241.839844 363.214844 241.035156 M 362.167969 256.8125 C 362.167969 255.328125 361.640625 254.179688 360.585938 253.359375 C 359.523438 252.550781 357.894531 252.140625 355.695313 252.140625 L 349.742188 252.140625 L 347.328125 264.398438 L 353.800781 264.398438 C 355.277344 264.398438 356.515625 264.207031 357.523438 263.777344 C 358.539063 263.355469 359.386719 262.792969 360.070313 262.101563 C 360.746094 261.425781 361.269531 260.613281 361.625 259.699219 C 361.992188 258.78125 362.167969 257.820313 362.167969 256.8125 M 368.140625 240.199219 C 368.140625 241.296875 367.992188 242.335938 367.691406 243.308594 C 367.398438 244.277344 366.976563 245.1875 366.429688 246.015625 C 365.882813 246.832031 365.214844 247.5625 364.445313 248.191406 C 363.664063 248.824219 362.777344 249.335938 361.792969 249.753906 C 362.546875 249.898438 363.253906 250.144531 363.898438 250.535156 C 364.554688 250.902344 365.117188 251.378906 365.585938 251.941406 C 366.042969 252.503906 366.40625 253.171875 366.675781 253.945313 C 366.929688 254.71875 367.0625 255.566406 367.0625 256.5 C 367.0625 257.445313 366.9375 258.40625 366.683594 259.367188 C 366.4375 260.332031 366.050781 261.238281 365.535156 262.101563 C 365.03125 262.972656 364.390625 263.785156 363.628906 264.535156 C 362.871094 265.269531 361.976563 265.917969 360.957031 266.472656 C 359.9375 267.039063 358.792969 267.464844 357.523438 267.765625 C 356.261719 268.066406 354.800781 268.230469 353.132813 268.230469 L 343.902344 268.230469 C 343.320313 268.230469 342.875 268.082031 342.582031 267.78125 C 342.28125 267.480469 342.21875 267 342.375 266.339844 L 348.5625 235.3125 C 348.6875 234.605469 348.972656 234.132813 349.417969 233.847656 C 349.875 233.5625 350.339844 233.425781 350.816406 233.425781 L 358.292969 233.425781 C 360.070313 233.425781 361.550781 233.574219 362.761719 233.878906 C 363.960938 234.164063 364.964844 234.605469 365.753906 235.175781 C 366.554688 235.753906 367.152344 236.453125 367.546875 237.300781 C 367.9375 238.140625 368.140625 239.113281 368.140625 240.199219 "/>
<path style=" stroke:none;fill-rule:nonzero;fill:rgb(15.299988%,19.198608%,52.198792%);fill-opacity:1;" d="M 391.664063 267.554688 C 391.644531 267.699219 391.597656 267.824219 391.503906 267.929688 C 391.414063 268.035156 391.289063 268.125 391.128906 268.1875 C 390.96875 268.253906 390.753906 268.296875 390.496094 268.335938 C 390.234375 268.367188 389.914063 268.378906 389.546875 268.378906 C 389.183594 268.378906 388.882813 268.367188 388.644531 268.335938 C 388.398438 268.296875 388.214844 268.253906 388.078125 268.1875 C 387.9375 268.125 387.855469 268.035156 387.808594 267.929688 C 387.769531 267.824219 387.761719 267.699219 387.789063 267.554688 L 388.683594 263.003906 C 388.390625 263.617188 387.9375 264.265625 387.320313 264.925781 C 386.703125 265.601563 385.984375 266.234375 385.144531 266.796875 C 384.3125 267.375 383.398438 267.839844 382.410156 268.199219 C 381.40625 268.5625 380.394531 268.742188 379.386719 268.742188 C 378.164063 268.742188 377.132813 268.570313 376.300781 268.238281 C 375.46875 267.902344 374.792969 267.449219 374.285156 266.863281 C 373.769531 266.292969 373.398438 265.601563 373.179688 264.789063 C 372.957031 263.996094 372.847656 263.121094 372.847656 262.175781 C 372.847656 261.582031 372.886719 260.976563 372.964844 260.359375 C 373.039063 259.738281 373.148438 259.128906 373.28125 258.496094 L 376.261719 243.324219 C 376.289063 243.191406 376.355469 243.078125 376.445313 242.972656 C 376.53125 242.859375 376.679688 242.785156 376.871094 242.703125 C 377.054688 242.632813 377.296875 242.589844 377.585938 242.558594 C 377.882813 242.53125 378.246094 242.515625 378.675781 242.515625 C 379.109375 242.515625 379.460938 242.53125 379.738281 242.558594 C 380.019531 242.589844 380.230469 242.632813 380.394531 242.703125 C 380.53125 242.785156 380.640625 242.859375 380.6875 242.972656 C 380.722656 243.078125 380.738281 243.191406 380.722656 243.324219 L 377.765625 258.324219 C 377.65625 258.796875 377.578125 259.277344 377.523438 259.773438 C 377.472656 260.285156 377.449219 260.792969 377.449219 261.304688 C 377.449219 261.855469 377.492188 262.34375 377.585938 262.777344 C 377.691406 263.21875 377.855469 263.597656 378.101563 263.917969 C 378.339844 264.242188 378.652344 264.492188 379.039063 264.671875 C 379.433594 264.851563 379.898438 264.941406 380.453125 264.941406 C 381.40625 264.941406 382.367188 264.671875 383.371094 264.121094 C 384.371094 263.574219 385.300781 262.824219 386.152344 261.855469 C 387.015625 260.886719 387.785156 259.738281 388.453125 258.398438 C 389.121094 257.0625 389.621094 255.597656 389.945313 254.019531 L 392.066406 243.324219 C 392.085938 243.191406 392.144531 243.078125 392.246094 242.972656 C 392.347656 242.859375 392.488281 242.785156 392.675781 242.703125 C 392.859375 242.632813 393.105469 242.589844 393.398438 242.558594 C 393.699219 242.53125 394.066406 242.515625 394.492188 242.515625 C 394.921875 242.515625 395.273438 242.53125 395.554688 242.558594 C 395.835938 242.589844 396.046875 242.632813 396.199219 242.703125 C 396.355469 242.785156 396.449219 242.859375 396.5 242.972656 C 396.539063 243.078125 396.550781 243.191406 396.539063 243.324219 "/>
<path style=" stroke:none;fill-rule:nonzero;fill:rgb(15.299988%,19.198608%,52.198792%);fill-opacity:1;" d="M 418.234375 244.660156 C 418.234375 244.847656 418.207031 245.082031 418.152344 245.382813 C 418.09375 245.667969 418.023438 245.96875 417.921875 246.253906 C 417.828125 246.539063 417.710938 246.789063 417.574219 246.976563 C 417.4375 247.171875 417.289063 247.277344 417.132813 247.277344 C 416.929688 247.277344 416.65625 247.199219 416.371094 247.019531 C 416.070313 246.855469 415.710938 246.660156 415.277344 246.441406 C 414.855469 246.222656 414.328125 246.035156 413.734375 245.847656 C 413.132813 245.667969 412.414063 245.578125 411.59375 245.578125 C 410.800781 245.578125 410.101563 245.699219 409.5 245.910156 C 408.882813 246.140625 408.371094 246.441406 407.964844 246.832031 C 407.554688 247.214844 407.238281 247.652344 407.019531 248.148438 C 406.808594 248.640625 406.703125 249.152344 406.703125 249.695313 C 406.703125 250.417969 406.933594 251.007813 407.410156 251.488281 C 407.886719 251.964844 408.488281 252.382813 409.199219 252.765625 C 409.917969 253.140625 410.695313 253.511719 411.523438 253.878906 C 412.363281 254.246094 413.132813 254.695313 413.839844 255.222656 C 414.546875 255.757813 415.140625 256.394531 415.613281 257.128906 C 416.089844 257.882813 416.328125 258.8125 416.328125 259.9375 C 416.328125 261.191406 416.070313 262.371094 415.585938 263.453125 C 415.097656 264.535156 414.390625 265.46875 413.464844 266.246094 C 412.539063 267.027344 411.414063 267.636719 410.117188 268.082031 C 408.800781 268.515625 407.347656 268.742188 405.734375 268.742188 C 404.886719 268.742188 404.097656 268.667969 403.347656 268.554688 C 402.609375 268.425781 401.933594 268.261719 401.332031 268.066406 C 400.734375 267.863281 400.21875 267.652344 399.789063 267.402344 C 399.355469 267.164063 399.019531 266.933594 398.792969 266.726563 C 398.652344 266.570313 398.550781 266.429688 398.480469 266.269531 C 398.425781 266.128906 398.386719 265.941406 398.386719 265.722656 C 398.386719 265.585938 398.394531 265.40625 398.410156 265.210938 C 398.433594 265.015625 398.472656 264.808594 398.519531 264.597656 C 398.578125 264.386719 398.632813 264.175781 398.703125 263.980469 C 398.757813 263.777344 398.835938 263.605469 398.925781 263.4375 C 399.011719 263.273438 399.101563 263.144531 399.195313 263.050781 C 399.289063 262.941406 399.394531 262.898438 399.519531 262.898438 C 399.738281 262.898438 399.988281 263.027344 400.304688 263.257813 C 400.605469 263.5 401.003906 263.769531 401.492188 264.039063 C 401.984375 264.324219 402.601563 264.582031 403.335938 264.820313 C 404.070313 265.066406 404.988281 265.183594 406.078125 265.183594 C 407.0625 265.183594 407.914063 265.066406 408.617188 264.820313 C 409.332031 264.582031 409.917969 264.25 410.378906 263.859375 C 410.847656 263.453125 411.1875 262.988281 411.414063 262.445313 C 411.640625 261.90625 411.753906 261.335938 411.753906 260.75 C 411.753906 260 411.523438 259.382813 411.054688 258.902344 C 410.59375 258.4375 410 258.003906 409.296875 257.617188 C 408.578125 257.234375 407.816406 256.84375 406.996094 256.46875 C 406.171875 256.09375 405.402344 255.65625 404.695313 255.140625 C 403.988281 254.636719 403.394531 254.007813 402.917969 253.253906 C 402.449219 252.519531 402.210938 251.570313 402.210938 250.429688 C 402.210938 249.242188 402.441406 248.148438 402.910156 247.125 C 403.371094 246.117188 404.03125 245.238281 404.878906 244.496094 C 405.734375 243.746094 406.757813 243.175781 407.949219 242.753906 C 409.140625 242.34375 410.464844 242.140625 411.914063 242.140625 C 412.601563 242.140625 413.257813 242.199219 413.894531 242.296875 C 414.523438 242.410156 415.109375 242.546875 415.652344 242.710938 C 416.183594 242.867188 416.65625 243.054688 417.050781 243.242188 C 417.445313 243.445313 417.746094 243.632813 417.933594 243.828125 C 418.132813 244.015625 418.234375 244.285156 418.234375 244.660156 "/>
<path style=" stroke:none;fill-rule:nonzero;fill:rgb(15.299988%,19.198608%,52.198792%);fill-opacity:1;" d="M 432.730469 235.207031 C 432.640625 235.710938 432.511719 236.121094 432.371094 236.46875 C 432.210938 236.808594 432.011719 237.085938 431.753906 237.285156 C 431.507813 237.496094 431.191406 237.632813 430.824219 237.730469 C 430.433594 237.820313 429.980469 237.863281 429.457031 237.863281 C 428.921875 237.863281 428.496094 237.820313 428.164063 237.730469 C 427.820313 237.632813 427.5625 237.496094 427.40625 237.285156 C 427.246094 237.085938 427.15625 236.808594 427.144531 236.46875 C 427.113281 236.121094 427.15625 235.710938 427.246094 235.207031 C 427.351563 234.703125 427.488281 234.289063 427.644531 233.953125 C 427.804688 233.621094 428.007813 233.34375 428.253906 233.125 C 428.496094 232.886719 428.808594 232.734375 429.171875 232.660156 C 429.554688 232.585938 430.011719 232.539063 430.550781 232.539063 C 431.0625 232.539063 431.5 232.585938 431.828125 232.660156 C 432.160156 232.734375 432.398438 232.886719 432.582031 233.125 C 432.753906 233.34375 432.84375 233.621094 432.859375 233.953125 C 432.875 234.289063 432.835938 234.703125 432.730469 235.207031 M 425.769531 267.554688 C 425.722656 267.703125 425.671875 267.8125 425.582031 267.917969 C 425.484375 268.019531 425.355469 268.097656 425.167969 268.171875 C 424.996094 268.246094 424.761719 268.300781 424.460938 268.335938 C 424.160156 268.367188 423.800781 268.382813 423.371094 268.382813 C 422.914063 268.382813 422.554688 268.367188 422.285156 268.335938 C 422 268.300781 421.78125 268.246094 421.636719 268.171875 C 421.480469 268.097656 421.375 268.019531 421.335938 267.917969 C 421.300781 267.8125 421.292969 267.703125 421.320313 267.554688 L 426.136719 243.355469 C 426.160156 243.226563 426.210938 243.101563 426.300781 243.003906 C 426.390625 242.898438 426.527344 242.800781 426.707031 242.738281 C 426.886719 242.65625 427.121094 242.605469 427.421875 242.566406 C 427.714844 242.535156 428.082031 242.515625 428.523438 242.515625 C 428.96875 242.515625 429.3125 242.535156 429.597656 242.566406 C 429.878906 242.605469 430.085938 242.65625 430.238281 242.738281 C 430.386719 242.800781 430.492188 242.898438 430.546875 243.003906 C 430.574219 243.101563 430.597656 243.226563 430.574219 243.355469 "/>
<path style=" stroke:none;fill-rule:nonzero;fill:rgb(15.299988%,19.198608%,52.198792%);fill-opacity:1;" d="M 457.605469 248.703125 C 457.605469 249.335938 457.5625 249.941406 457.503906 250.550781 C 457.425781 251.167969 457.328125 251.789063 457.199219 252.433594 L 454.167969 267.546875 C 454.121094 267.707031 454.0625 267.816406 453.984375 267.917969 C 453.902344 268.007813 453.777344 268.101563 453.582031 268.171875 C 453.398438 268.246094 453.152344 268.292969 452.867188 268.335938 C 452.589844 268.367188 452.214844 268.382813 451.761719 268.382813 C 451.335938 268.382813 450.980469 268.367188 450.710938 268.335938 C 450.425781 268.292969 450.214844 268.246094 450.058594 268.171875 C 449.898438 268.101563 449.808594 268.007813 449.765625 267.917969 C 449.710938 267.816406 449.703125 267.707031 449.726563 267.546875 L 452.710938 252.59375 C 452.835938 252.054688 452.917969 251.511719 452.964844 250.984375 C 453.007813 250.46875 453.023438 250.011719 453.023438 249.613281 C 453.023438 248.523438 452.800781 247.636719 452.335938 246.96875 C 451.867188 246.300781 451.085938 245.960938 449.992188 245.960938 C 449.042969 245.960938 448.066406 246.238281 447.085938 246.78125 C 446.085938 247.320313 445.160156 248.070313 444.304688 249.03125 C 443.457031 249.996094 442.691406 251.144531 442.023438 252.460938 C 441.34375 253.773438 440.855469 255.191406 440.558594 256.738281 L 438.402344 267.546875 C 438.363281 267.707031 438.304688 267.816406 438.214844 267.917969 C 438.125 268.007813 437.988281 268.101563 437.808594 268.171875 C 437.628906 268.246094 437.386719 268.292969 437.101563 268.335938 C 436.800781 268.367188 436.441406 268.382813 436.003906 268.382813 C 435.5625 268.382813 435.203125 268.367188 434.917969 268.335938 C 434.636719 268.292969 434.429688 268.246094 434.269531 268.171875 C 434.128906 268.101563 434.023438 268.007813 433.976563 267.917969 C 433.933594 267.816406 433.933594 267.707031 433.96875 267.546875 L 438.828125 243.324219 C 438.851563 243.195313 438.90625 243.078125 438.980469 242.964844 C 439.0625 242.867188 439.191406 242.777344 439.363281 242.710938 C 439.535156 242.636719 439.746094 242.582031 440.003906 242.558594 C 440.257813 242.527344 440.570313 242.515625 440.933594 242.515625 C 441.308594 242.515625 441.617188 242.527344 441.847656 242.558594 C 442.105469 242.582031 442.285156 242.636719 442.417969 242.710938 C 442.5625 242.777344 442.644531 242.867188 442.675781 242.964844 C 442.71875 243.078125 442.734375 243.195313 442.703125 243.324219 L 441.789063 247.953125 C 442.058594 247.34375 442.496094 246.695313 443.109375 246.015625 C 443.726563 245.332031 444.449219 244.707031 445.289063 244.128906 C 446.128906 243.550781 447.0625 243.078125 448.066406 242.710938 C 449.082031 242.320313 450.140625 242.140625 451.238281 242.140625 C 452.421875 242.140625 453.429688 242.320313 454.234375 242.695313 C 455.050781 243.0625 455.707031 243.535156 456.210938 244.144531 C 456.703125 244.746094 457.066406 245.433594 457.277344 246.222656 C 457.503906 247.019531 457.605469 247.847656 457.605469 248.703125 "/>
<path style=" stroke:none;fill-rule:nonzero;fill:rgb(15.299988%,19.198608%,52.198792%);fill-opacity:1;" d="M 480.859375 248.703125 C 480.859375 247.789063 480.5 247.050781 479.792969 246.480469 C 479.070313 245.910156 478.050781 245.640625 476.722656 245.640625 C 475.550781 245.640625 474.527344 245.835938 473.628906 246.238281 C 472.734375 246.644531 471.9375 247.183594 471.246094 247.867188 C 470.554688 248.546875 469.96875 249.347656 469.472656 250.25 C 468.976563 251.152344 468.589844 252.105469 468.285156 253.109375 L 471.019531 253.109375 C 472.90625 253.109375 474.476563 253 475.738281 252.757813 C 477 252.527344 478.019531 252.21875 478.777344 251.804688 C 479.539063 251.40625 480.078125 250.941406 480.394531 250.386719 C 480.710938 249.859375 480.859375 249.289063 480.859375 248.703125 M 485.410156 248.304688 C 485.410156 249.539063 485.125 250.65625 484.546875 251.632813 C 483.96875 252.609375 483.082031 253.457031 481.867188 254.15625 C 480.640625 254.859375 479.078125 255.394531 477.171875 255.777344 C 475.285156 256.152344 472.996094 256.34375 470.351563 256.34375 L 467.496094 256.34375 C 467.371094 256.929688 467.296875 257.507813 467.242188 258.0625 C 467.199219 258.609375 467.175781 259.136719 467.175781 259.625 C 467.175781 261.410156 467.625 262.777344 468.503906 263.730469 C 469.390625 264.683594 470.839844 265.152344 472.824219 265.152344 C 473.972656 265.152344 475.003906 265.074219 475.917969 264.902344 C 476.835938 264.730469 477.628906 264.550781 478.289063 264.347656 C 478.964844 264.160156 479.523438 263.972656 479.941406 263.800781 C 480.371094 263.628906 480.671875 263.542969 480.828125 263.542969 C 480.996094 263.542969 481.113281 263.605469 481.203125 263.71875 C 481.28125 263.832031 481.316406 264.003906 481.316406 264.222656 C 481.316406 264.398438 481.308594 264.609375 481.265625 264.859375 C 481.234375 265.121094 481.175781 265.378906 481.097656 265.632813 C 481.03125 265.886719 480.941406 266.136719 480.828125 266.367188 C 480.710938 266.601563 480.574219 266.804688 480.4375 266.96875 C 480.214844 267.171875 479.839844 267.390625 479.289063 267.585938 C 478.742188 267.796875 478.09375 267.988281 477.34375 268.164063 C 476.59375 268.320313 475.765625 268.464844 474.875 268.574219 C 473.972656 268.683594 473.078125 268.734375 472.175781 268.734375 C 470.585938 268.734375 469.1875 268.5625 467.984375 268.191406 C 466.785156 267.832031 465.777344 267.285156 464.980469 266.550781 C 464.183594 265.796875 463.59375 264.875 463.195313 263.769531 C 462.804688 262.648438 462.609375 261.34375 462.609375 259.835938 C 462.609375 258.679688 462.714844 257.417969 462.9375 256.078125 C 463.164063 254.75 463.523438 253.429688 464.003906 252.121094 C 464.484375 250.808594 465.117188 249.550781 465.882813 248.347656 C 466.648438 247.15625 467.574219 246.089844 468.632813 245.1875 C 469.707031 244.257813 470.945313 243.527344 472.335938 242.964844 C 473.738281 242.410156 475.316406 242.140625 477.066406 242.140625 C 478.574219 242.140625 479.851563 242.320313 480.902344 242.710938 C 481.949219 243.078125 482.8125 243.566406 483.488281 244.152344 C 484.15625 244.746094 484.644531 245.40625 484.960938 246.136719 C 485.261719 246.855469 485.410156 247.585938 485.410156 248.304688 "/>
<path style=" stroke:none;fill-rule:nonzero;fill:rgb(15.299988%,19.198608%,52.198792%);fill-opacity:1;" d="M 506.921875 244.660156 C 506.921875 244.847656 506.890625 245.082031 506.839844 245.382813 C 506.785156 245.667969 506.710938 245.96875 506.605469 246.253906 C 506.515625 246.539063 506.394531 246.789063 506.261719 246.976563 C 506.125 247.171875 505.980469 247.277344 505.8125 247.277344 C 505.605469 247.277344 505.34375 247.199219 505.058594 247.019531 C 504.757813 246.855469 504.398438 246.660156 503.964844 246.441406 C 503.539063 246.222656 503.023438 246.035156 502.414063 245.847656 C 501.8125 245.667969 501.101563 245.578125 500.28125 245.578125 C 499.492188 245.578125 498.796875 245.699219 498.1875 245.910156 C 497.570313 246.140625 497.066406 246.441406 496.652344 246.832031 C 496.234375 247.214844 495.925781 247.652344 495.710938 248.148438 C 495.488281 248.640625 495.386719 249.152344 495.386719 249.695313 C 495.386719 250.417969 495.625 251.007813 496.089844 251.488281 C 496.578125 251.964844 497.171875 252.382813 497.886719 252.765625 C 498.605469 253.140625 499.378906 253.511719 500.214844 253.878906 C 501.046875 254.246094 501.8125 254.695313 502.519531 255.222656 C 503.226563 255.757813 503.828125 256.394531 504.308594 257.128906 C 504.773438 257.882813 505.011719 258.8125 505.011719 259.9375 C 505.011719 261.191406 504.773438 262.371094 504.277344 263.453125 C 503.78125 264.535156 503.066406 265.46875 502.160156 266.246094 C 501.230469 267.027344 500.109375 267.636719 498.800781 268.082031 C 497.488281 268.515625 496.03125 268.742188 494.414063 268.742188 C 493.566406 268.742188 492.777344 268.667969 492.035156 268.554688 C 491.285156 268.425781 490.621094 268.261719 490.023438 268.066406 C 489.421875 267.863281 488.902344 267.652344 488.476563 267.402344 C 488.039063 267.164063 487.710938 266.933594 487.484375 266.726563 C 487.335938 266.570313 487.230469 266.429688 487.167969 266.269531 C 487.109375 266.128906 487.078125 265.941406 487.078125 265.722656 C 487.078125 265.585938 487.085938 265.40625 487.109375 265.210938 C 487.121094 265.015625 487.152344 264.808594 487.214844 264.597656 C 487.257813 264.386719 487.316406 264.175781 487.378906 263.980469 C 487.453125 263.777344 487.527344 263.605469 487.617188 263.4375 C 487.703125 263.273438 487.785156 263.144531 487.890625 263.050781 C 487.972656 262.941406 488.085938 262.898438 488.203125 262.898438 C 488.429688 262.898438 488.679688 263.027344 488.984375 263.257813 C 489.285156 263.5 489.691406 263.769531 490.179688 264.039063 C 490.667969 264.324219 491.285156 264.582031 492.019531 264.820313 C 492.757813 265.066406 493.671875 265.183594 494.769531 265.183594 C 495.761719 265.183594 496.601563 265.066406 497.308594 264.820313 C 498.011719 264.582031 498.605469 264.25 499.066406 263.859375 C 499.539063 263.453125 499.878906 262.988281 500.109375 262.445313 C 500.328125 261.90625 500.441406 261.335938 500.441406 260.75 C 500.441406 260 500.207031 259.382813 499.742188 258.902344 C 499.273438 258.4375 498.691406 258.003906 497.984375 257.617188 C 497.269531 257.234375 496.511719 256.84375 495.6875 256.46875 C 494.859375 256.09375 494.09375 255.65625 493.386719 255.140625 C 492.664063 254.636719 492.089844 254.007813 491.601563 253.253906 C 491.132813 252.519531 490.886719 251.570313 490.886719 250.429688 C 490.886719 249.242188 491.128906 248.148438 491.601563 247.125 C 492.050781 246.117188 492.726563 245.238281 493.566406 244.496094 C 494.421875 243.746094 495.445313 243.175781 496.632813 242.753906 C 497.816406 242.34375 499.148438 242.140625 500.597656 242.140625 C 501.289063 242.140625 501.949219 242.199219 502.578125 242.296875 C 503.210938 242.410156 503.796875 242.546875 504.339844 242.710938 C 504.878906 242.867188 505.34375 243.054688 505.734375 243.242188 C 506.125 243.445313 506.425781 243.632813 506.621094 243.828125 C 506.832031 244.015625 506.921875 244.285156 506.921875 244.660156 "/>
<path style=" stroke:none;fill-rule:nonzero;fill:rgb(15.299988%,19.198608%,52.198792%);fill-opacity:1;" d="M 528.355469 244.660156 C 528.355469 244.847656 528.328125 245.082031 528.265625 245.382813 C 528.214844 245.667969 528.144531 245.96875 528.042969 246.253906 C 527.949219 246.539063 527.832031 246.789063 527.695313 246.976563 C 527.558594 247.171875 527.410156 247.277344 527.253906 247.277344 C 527.035156 247.277344 526.78125 247.199219 526.488281 247.019531 C 526.1875 246.855469 525.816406 246.660156 525.398438 246.441406 C 524.96875 246.222656 524.449219 246.035156 523.851563 245.847656 C 523.25 245.667969 522.527344 245.578125 521.710938 245.578125 C 520.921875 245.578125 520.222656 245.699219 519.613281 245.910156 C 519 246.140625 518.496094 246.441406 518.082031 246.832031 C 517.675781 247.214844 517.359375 247.652344 517.136719 248.148438 C 516.925781 248.640625 516.820313 249.152344 516.820313 249.695313 C 516.820313 250.417969 517.0625 251.007813 517.527344 251.488281 C 518.007813 251.964844 518.601563 252.382813 519.3125 252.765625 C 520.035156 253.140625 520.816406 253.511719 521.640625 253.878906 C 522.484375 254.246094 523.25 254.695313 523.957031 255.222656 C 524.667969 255.757813 525.253906 256.394531 525.726563 257.128906 C 526.199219 257.882813 526.449219 258.8125 526.449219 259.9375 C 526.449219 261.191406 526.199219 262.371094 525.714844 263.453125 C 525.21875 264.535156 524.496094 265.46875 523.578125 266.246094 C 522.65625 267.027344 521.535156 267.636719 520.230469 268.082031 C 518.921875 268.515625 517.464844 268.742188 515.84375 268.742188 C 515.003906 268.742188 514.207031 268.667969 513.464844 268.554688 C 512.726563 268.425781 512.058594 268.261719 511.457031 268.066406 C 510.847656 267.863281 510.332031 267.652344 509.910156 267.402344 C 509.476563 267.164063 509.144531 266.933594 508.910156 266.726563 C 508.769531 266.570313 508.664063 266.429688 508.605469 266.269531 C 508.535156 266.128906 508.511719 265.941406 508.511719 265.722656 C 508.511719 265.585938 508.511719 265.40625 508.535156 265.210938 C 508.550781 265.015625 508.582031 264.808594 508.640625 264.597656 C 508.695313 264.386719 508.753906 264.175781 508.8125 263.980469 C 508.882813 263.777344 508.957031 263.605469 509.054688 263.4375 C 509.128906 263.273438 509.226563 263.144531 509.316406 263.050781 C 509.398438 262.941406 509.511719 262.898438 509.632813 262.898438 C 509.851563 262.898438 510.105469 263.027344 510.421875 263.257813 C 510.722656 263.5 511.121094 263.769531 511.609375 264.039063 C 512.109375 264.324219 512.726563 264.582031 513.457031 264.820313 C 514.191406 265.066406 515.109375 265.183594 516.1875 265.183594 C 517.1875 265.183594 518.035156 265.066406 518.742188 264.820313 C 519.449219 264.582031 520.035156 264.25 520.5 263.859375 C 520.964844 263.453125 521.3125 262.988281 521.535156 262.445313 C 521.761719 261.90625 521.867188 261.335938 521.867188 260.75 C 521.867188 260 521.640625 259.382813 521.175781 258.902344 C 520.695313 258.4375 520.117188 258.003906 519.417969 257.617188 C 518.699219 257.234375 517.9375 256.84375 517.121094 256.46875 C 516.292969 256.09375 515.527344 255.65625 514.824219 255.140625 C 514.101563 254.636719 513.515625 254.007813 513.035156 253.253906 C 512.570313 252.519531 512.3125 251.570313 512.3125 250.429688 C 512.3125 249.242188 512.554688 248.148438 513.027344 247.125 C 513.492188 246.117188 514.144531 245.238281 515.003906 244.496094 C 515.859375 243.746094 516.871094 243.175781 518.066406 242.753906 C 519.253906 242.34375 520.574219 242.140625 522.03125 242.140625 C 522.714844 242.140625 523.378906 242.199219 524.007813 242.296875 C 524.644531 242.410156 525.238281 242.546875 525.773438 242.710938 C 526.304688 242.867188 526.78125 243.054688 527.171875 243.242188 C 527.558594 243.445313 527.859375 243.632813 528.054688 243.828125 C 528.253906 244.015625 528.355469 244.285156 528.355469 244.660156 "/>
<path style=" stroke:none;fill-rule:nonzero;fill:rgb(15.299988%,19.198608%,52.198792%);fill-opacity:1;" d="M 572.097656 245.414063 C 572.097656 244.167969 571.964844 243.019531 571.679688 241.964844 C 571.394531 240.921875 570.925781 240.019531 570.296875 239.269531 C 569.671875 238.511719 568.839844 237.917969 567.800781 237.503906 C 566.757813 237.074219 565.503906 236.867188 564.03125 236.867188 C 562.167969 236.867188 560.546875 237.210938 559.128906 237.902344 C 557.722656 238.59375 556.5 239.496094 555.46875 240.605469 C 554.449219 241.71875 553.59375 242.980469 552.914063 244.394531 C 552.242188 245.789063 551.707031 247.214844 551.292969 248.648438 C 550.902344 250.078125 550.617188 251.46875 550.4375 252.820313 C 550.273438 254.164063 550.183594 255.328125 550.183594 256.320313 C 550.183594 257.582031 550.332031 258.738281 550.601563 259.757813 C 550.890625 260.796875 551.347656 261.683594 551.992188 262.417969 C 552.636719 263.152344 553.472656 263.726563 554.507813 264.121094 C 555.535156 264.535156 556.792969 264.722656 558.277344 264.722656 C 560.125 264.722656 561.75 264.394531 563.144531 263.726563 C 564.550781 263.050781 565.761719 262.160156 566.773438 261.066406 C 567.800781 259.984375 568.660156 258.738281 569.335938 257.347656 C 570.019531 255.960938 570.566406 254.554688 570.972656 253.128906 C 571.394531 251.707031 571.679688 250.316406 571.84375 248.972656 C 572.023438 247.621094 572.097656 246.441406 572.097656 245.414063 M 577.046875 245.105469 C 577.046875 246.488281 576.921875 248.019531 576.679688 249.71875 C 576.417969 251.4375 576.003906 253.15625 575.417969 254.921875 C 574.816406 256.671875 574.035156 258.378906 573.058594 260.042969 C 572.082031 261.695313 570.867188 263.160156 569.433594 264.445313 C 568.011719 265.730469 566.300781 266.757813 564.332031 267.554688 C 562.359375 268.34375 560.105469 268.742188 557.550781 268.742188 C 555.515625 268.742188 553.71875 268.484375 552.179688 267.976563 C 550.632813 267.464844 549.339844 266.699219 548.320313 265.683594 C 547.285156 264.671875 546.503906 263.425781 545.992188 261.929688 C 545.464844 260.433594 545.210938 258.722656 545.210938 256.769531 C 545.210938 255.238281 545.347656 253.570313 545.621094 251.796875 C 545.886719 250.019531 546.328125 248.253906 546.945313 246.488281 C 547.570313 244.722656 548.363281 243.019531 549.371094 241.386719 C 550.363281 239.757813 551.578125 238.308594 553.027344 237.046875 C 554.464844 235.785156 556.152344 234.777344 558.089844 234.027344 C 560.027344 233.292969 562.253906 232.917969 564.769531 232.917969 C 566.789063 232.917969 568.570313 233.183594 570.101563 233.703125 C 571.632813 234.238281 572.917969 235.019531 573.945313 236.054688 C 574.96875 237.074219 575.75 238.351563 576.273438 239.871094 C 576.792969 241.386719 577.046875 243.128906 577.046875 245.105469 "/>
<path style=" stroke:none;fill-rule:nonzero;fill:rgb(15.299988%,19.198608%,52.198792%);fill-opacity:1;" d="M 600.015625 267.554688 C 600 267.699219 599.949219 267.824219 599.859375 267.929688 C 599.769531 268.035156 599.648438 268.125 599.484375 268.1875 C 599.316406 268.253906 599.105469 268.296875 598.851563 268.335938 C 598.582031 268.367188 598.265625 268.378906 597.890625 268.378906 C 597.53125 268.378906 597.246094 268.367188 596.988281 268.335938 C 596.75 268.296875 596.5625 268.253906 596.417969 268.1875 C 596.296875 268.125 596.199219 268.035156 596.164063 267.929688 C 596.109375 267.824219 596.109375 267.699219 596.148438 267.554688 L 597.035156 263.003906 C 596.75 263.617188 596.296875 264.265625 595.667969 264.925781 C 595.050781 265.601563 594.328125 266.234375 593.488281 266.796875 C 592.671875 267.375 591.746094 267.839844 590.753906 268.199219 C 589.765625 268.5625 588.757813 268.742188 587.722656 268.742188 C 586.511719 268.742188 585.484375 268.570313 584.648438 268.238281 C 583.816406 267.902344 583.140625 267.449219 582.628906 266.863281 C 582.125 266.292969 581.75 265.601563 581.523438 264.789063 C 581.308594 263.996094 581.195313 263.121094 581.195313 262.175781 C 581.195313 261.582031 581.230469 260.976563 581.308594 260.359375 C 581.398438 259.738281 581.496094 259.128906 581.621094 258.496094 L 584.613281 243.324219 C 584.648438 243.191406 584.710938 243.078125 584.792969 242.972656 C 584.882813 242.859375 585.023438 242.785156 585.21875 242.703125 C 585.394531 242.632813 585.648438 242.589844 585.941406 242.558594 C 586.234375 242.53125 586.601563 242.515625 587.03125 242.515625 C 587.464844 242.515625 587.820313 242.53125 588.097656 242.558594 C 588.367188 242.589844 588.59375 242.632813 588.726563 242.703125 C 588.886719 242.785156 588.996094 242.859375 589.027344 242.972656 C 589.078125 243.078125 589.089844 243.191406 589.078125 243.324219 L 586.113281 258.324219 C 586.007813 258.796875 585.925781 259.277344 585.871094 259.773438 C 585.8125 260.285156 585.796875 260.792969 585.796875 261.304688 C 585.796875 261.855469 585.84375 262.34375 585.941406 262.777344 C 586.039063 263.21875 586.210938 263.597656 586.445313 263.917969 C 586.699219 264.242188 587 264.492188 587.390625 264.671875 C 587.78125 264.851563 588.246094 264.941406 588.800781 264.941406 C 589.757813 264.941406 590.726563 264.671875 591.722656 264.121094 C 592.714844 263.574219 593.648438 262.824219 594.511719 261.855469 C 595.367188 260.886719 596.132813 259.738281 596.808594 258.398438 C 597.476563 257.0625 597.964844 255.597656 598.296875 254.019531 L 600.421875 243.324219 C 600.445313 243.191406 600.488281 243.078125 600.601563 242.972656 C 600.691406 242.859375 600.835938 242.785156 601.03125 242.703125 C 601.210938 242.632813 601.449219 242.589844 601.75 242.558594 C 602.050781 242.53125 602.410156 242.515625 602.839844 242.515625 C 603.277344 242.515625 603.621094 242.53125 603.898438 242.558594 C 604.183594 242.589844 604.394531 242.632813 604.542969 242.703125 C 604.695313 242.785156 604.800781 242.859375 604.84375 242.972656 C 604.882813 243.078125 604.90625 243.191406 604.882813 243.324219 "/>
<path style=" stroke:none;fill-rule:nonzero;fill:rgb(15.299988%,19.198608%,52.198792%);fill-opacity:1;" d="M 625.566406 243.617188 C 625.566406 243.792969 625.550781 243.957031 625.539063 244.136719 C 625.515625 244.332031 625.484375 244.527344 625.433594 244.722656 C 625.378906 244.917969 625.304688 245.113281 625.214844 245.308594 C 625.125 245.519531 625.019531 245.683594 624.929688 245.84375 C 624.832031 246 624.71875 246.105469 624.597656 246.203125 C 624.472656 246.292969 624.328125 246.332031 624.171875 246.332031 L 617.972656 246.332031 L 615.261719 259.835938 C 615.195313 260.210938 615.136719 260.628906 615.074219 261.097656 C 615.015625 261.566406 614.992188 261.945313 614.992188 262.261719 C 614.992188 263.175781 615.1875 263.835938 615.570313 264.265625 C 615.960938 264.671875 616.585938 264.894531 617.449219 264.894531 C 617.929688 264.894531 618.347656 264.851563 618.710938 264.769531 C 619.0625 264.683594 619.378906 264.609375 619.640625 264.507813 C 619.898438 264.421875 620.113281 264.339844 620.324219 264.265625 C 620.511719 264.175781 620.683594 264.136719 620.828125 264.136719 C 620.976563 264.136719 621.085938 264.191406 621.171875 264.28125 C 621.25 264.386719 621.296875 264.582031 621.296875 264.835938 C 621.296875 265.066406 621.269531 265.316406 621.21875 265.601563 C 621.171875 265.875 621.113281 266.148438 621.046875 266.421875 C 620.976563 266.691406 620.886719 266.925781 620.777344 267.148438 C 620.671875 267.367188 620.558594 267.523438 620.429688 267.660156 C 620.289063 267.796875 620.070313 267.917969 619.785156 268.035156 C 619.5 268.15625 619.160156 268.273438 618.785156 268.375 C 618.410156 268.472656 618.019531 268.546875 617.597656 268.597656 C 617.171875 268.660156 616.742188 268.679688 616.335938 268.679688 C 615.332031 268.679688 614.472656 268.574219 613.730469 268.359375 C 612.996094 268.140625 612.378906 267.808594 611.875 267.351563 C 611.371094 266.894531 611.003906 266.324219 610.757813 265.632813 C 610.515625 264.941406 610.394531 264.105469 610.394531 263.140625 C 610.394531 262.929688 610.402344 262.6875 610.425781 262.417969 C 610.441406 262.179688 610.472656 261.898438 610.515625 261.613281 C 610.570313 261.320313 610.613281 261.035156 610.660156 260.75 C 610.703125 260.464844 610.75 260.195313 610.800781 259.9375 L 613.511719 246.332031 L 610.15625 246.332031 C 609.96875 246.332031 609.808594 246.277344 609.695313 246.164063 C 609.59375 246.046875 609.539063 245.820313 609.539063 245.472656 C 609.539063 245.226563 609.5625 244.933594 609.621094 244.601563 C 609.667969 244.269531 609.757813 243.957031 609.855469 243.679688 C 609.96875 243.386719 610.101563 243.144531 610.28125 242.949219 C 610.449219 242.746094 610.644531 242.648438 610.882813 242.648438 L 614.265625 242.648438 L 615.433594 236.894531 C 615.433594 236.777344 615.503906 236.648438 615.601563 236.542969 C 615.707031 236.445313 615.839844 236.347656 616.019531 236.265625 C 616.195313 236.175781 616.425781 236.132813 616.726563 236.085938 C 617.027344 236.054688 617.386719 236.03125 617.816406 236.03125 C 618.246094 236.03125 618.605469 236.054688 618.890625 236.085938 C 619.152344 236.132813 619.378906 236.175781 619.535156 236.265625 C 619.679688 236.347656 619.769531 236.445313 619.820313 236.542969 C 619.867188 236.648438 619.882813 236.777344 619.867188 236.894531 L 618.710938 242.648438 L 624.882813 242.648438 C 625.160156 242.648438 625.335938 242.746094 625.433594 242.949219 C 625.515625 243.144531 625.566406 243.371094 625.566406 243.617188 "/>
<path style=" stroke:none;fill-rule:nonzero;fill:rgb(15.299988%,19.198608%,52.198792%);fill-opacity:1;" d="M 647.289063 245.472656 C 647.289063 245.796875 647.257813 246.125 647.199219 246.472656 C 647.128906 246.8125 647.039063 247.125 646.914063 247.417969 C 646.785156 247.71875 646.644531 247.976563 646.46875 248.160156 C 646.304688 248.359375 646.109375 248.453125 645.890625 248.453125 C 645.636719 248.453125 645.378906 248.335938 645.117188 248.066406 C 644.847656 247.808594 644.488281 247.515625 644.050781 247.203125 C 643.617188 246.871094 643.058594 246.585938 642.386719 246.316406 C 641.707031 246.042969 640.851563 245.910156 639.8125 245.910156 C 638.671875 245.910156 637.652344 246.144531 636.765625 246.617188 C 635.878906 247.09375 635.105469 247.710938 634.445313 248.476563 C 633.792969 249.230469 633.25 250.101563 632.824219 251.078125 C 632.394531 252.039063 632.035156 253.015625 631.777344 254.003906 C 631.5 254.984375 631.3125 255.945313 631.199219 256.859375 C 631.074219 257.789063 631.027344 258.59375 631.027344 259.269531 C 631.027344 261.117188 631.417969 262.515625 632.230469 263.460938 C 633.039063 264.410156 634.242188 264.898438 635.835938 264.898438 C 636.996094 264.898438 637.996094 264.746094 638.832031 264.460938 C 639.664063 264.175781 640.371094 263.84375 640.957031 263.476563 C 641.535156 263.109375 642.007813 262.785156 642.398438 262.492188 C 642.769531 262.214844 643.105469 262.074219 643.398438 262.074219 C 643.539063 262.074219 643.644531 262.132813 643.726563 262.269531 C 643.8125 262.402344 643.855469 262.597656 643.855469 262.84375 C 643.855469 263.0625 643.824219 263.320313 643.796875 263.605469 C 643.757813 263.90625 643.699219 264.21875 643.617188 264.535156 C 643.539063 264.851563 643.433594 265.136719 643.328125 265.398438 C 643.210938 265.667969 643.046875 265.917969 642.828125 266.144531 C 642.609375 266.367188 642.234375 266.636719 641.691406 266.960938 C 641.160156 267.285156 640.535156 267.570313 639.828125 267.839844 C 639.125 268.09375 638.359375 268.3125 637.53125 268.488281 C 636.703125 268.644531 635.863281 268.742188 634.976563 268.742188 C 632.09375 268.742188 629.933594 267.996094 628.503906 266.535156 C 627.078125 265.054688 626.371094 262.875 626.371094 259.96875 C 626.371094 258.878906 626.460938 257.6875 626.65625 256.378906 C 626.835938 255.078125 627.167969 253.773438 627.609375 252.457031 C 628.054688 251.136719 628.625 249.859375 629.324219 248.628906 C 630.019531 247.378906 630.886719 246.285156 631.914063 245.324219 C 632.933594 244.375 634.113281 243.605469 635.460938 243.027344 C 636.8125 242.453125 638.34375 242.167969 640.085938 242.167969 C 640.800781 242.167969 641.488281 242.230469 642.152344 242.351563 C 642.820313 242.453125 643.433594 242.621094 644.019531 242.816406 C 644.605469 243 645.132813 243.25 645.605469 243.550781 C 646.078125 243.851563 646.453125 244.113281 646.710938 244.347656 C 646.972656 244.578125 647.128906 244.777344 647.199219 244.933594 C 647.257813 245.097656 647.289063 245.277344 647.289063 245.472656 "/>
<path style=" stroke:none;fill-rule:nonzero;fill:rgb(15.299988%,19.198608%,52.198792%);fill-opacity:1;" d="M 668.371094 251.632813 C 668.371094 250.730469 668.28125 249.917969 668.085938 249.214844 C 667.890625 248.492188 667.589844 247.894531 667.140625 247.398438 C 666.703125 246.902344 666.140625 246.527344 665.425781 246.253906 C 664.722656 245.984375 663.855469 245.851563 662.867188 245.851563 C 661.792969 245.851563 660.8125 246.042969 659.929688 246.429688 C 659.042969 246.820313 658.261719 247.335938 657.570313 247.984375 C 656.878906 248.644531 656.277344 249.410156 655.773438 250.289063 C 655.257813 251.167969 654.84375 252.113281 654.515625 253.089844 C 654.183594 254.097656 653.929688 255.117188 653.769531 256.160156 C 653.605469 257.222656 653.535156 258.242188 653.535156 259.246094 C 653.535156 260.136719 653.628906 260.953125 653.8125 261.660156 C 654.023438 262.371094 654.34375 262.988281 654.777344 263.492188 C 655.21875 263.996094 655.789063 264.386719 656.480469 264.640625 C 657.1875 264.910156 658.042969 265.054688 659.035156 265.054688 C 660.125 265.054688 661.117188 264.859375 661.988281 264.46875 C 662.855469 264.09375 663.640625 263.558594 664.328125 262.898438 C 665.019531 262.238281 665.621094 261.472656 666.132813 260.585938 C 666.644531 259.707031 667.0625 258.769531 667.386719 257.761719 C 667.726563 256.761719 667.964844 255.734375 668.128906 254.695313 C 668.296875 253.660156 668.371094 252.640625 668.371094 251.632813 M 673.058594 251.363281 C 673.058594 252.691406 672.921875 254.050781 672.667969 255.417969 C 672.425781 256.800781 672.035156 258.128906 671.523438 259.414063 C 671.015625 260.695313 670.382813 261.90625 669.578125 263.03125 C 668.792969 264.167969 667.859375 265.144531 666.800781 265.992188 C 665.734375 266.832031 664.523438 267.511719 663.164063 267.996094 C 661.808594 268.488281 660.304688 268.742188 658.636719 268.742188 C 656.910156 268.742188 655.445313 268.53125 654.214844 268.125 C 652.980469 267.703125 651.976563 267.105469 651.1875 266.316406 C 650.398438 265.527344 649.820313 264.566406 649.445313 263.414063 C 649.066406 262.269531 648.871094 260.96875 648.871094 259.519531 C 648.871094 258.183594 648.992188 256.828125 649.234375 255.453125 C 649.480469 254.066406 649.863281 252.742188 650.382813 251.46875 C 650.902344 250.203125 651.546875 248.996094 652.335938 247.855469 C 653.109375 246.722656 654.039063 245.730469 655.09375 244.878906 C 656.164063 244.039063 657.375 243.371094 658.734375 242.875 C 660.078125 242.386719 661.597656 242.140625 663.265625 242.140625 C 664.992188 242.140625 666.453125 242.351563 667.6875 242.769531 C 668.921875 243.191406 669.925781 243.808594 670.730469 244.578125 C 671.515625 245.382813 672.109375 246.34375 672.488281 247.488281 C 672.863281 248.644531 673.058594 249.917969 673.058594 251.363281 "/>
<path style=" stroke:none;fill-rule:nonzero;fill:rgb(15.299988%,19.198608%,52.198792%);fill-opacity:1;" d="M 712.234375 267.554688 C 712.21875 267.699219 712.171875 267.824219 712.074219 267.914063 C 711.976563 268.011719 711.84375 268.09375 711.65625 268.171875 C 711.46875 268.246094 711.226563 268.296875 710.925781 268.335938 C 710.640625 268.367188 710.265625 268.378906 709.835938 268.378906 C 709.417969 268.378906 709.046875 268.367188 708.777344 268.335938 C 708.5 268.296875 708.28125 268.246094 708.132813 268.171875 C 707.980469 268.09375 707.878906 268.011719 707.824219 267.914063 C 707.773438 267.824219 707.757813 267.699219 707.800781 267.554688 L 710.785156 252.601563 C 710.867188 252.082031 710.957031 251.585938 711.007813 251.121094 C 711.078125 250.664063 711.105469 250.191406 711.105469 249.714844 C 711.105469 248.582031 710.882813 247.667969 710.445313 246.976563 C 710.007813 246.300781 709.242188 245.960938 708.15625 245.960938 C 707.253906 245.960938 706.320313 246.234375 705.359375 246.78125 C 704.398438 247.320313 703.492188 248.078125 702.632813 249.035156 C 701.769531 249.996094 701.011719 251.136719 700.351563 252.457031 C 699.675781 253.765625 699.203125 255.199219 698.902344 256.746094 L 696.746094 267.554688 C 696.710938 267.699219 696.648438 267.824219 696.550781 267.914063 C 696.460938 268.011719 696.324219 268.09375 696.144531 268.171875 C 695.957031 268.246094 695.710938 268.296875 695.417969 268.335938 C 695.117188 268.367188 694.75 268.378906 694.3125 268.378906 C 693.890625 268.378906 693.546875 268.367188 693.261719 268.335938 C 692.976563 268.296875 692.773438 268.246094 692.628906 268.171875 C 692.488281 268.09375 692.390625 268.011719 692.328125 267.914063 C 692.285156 267.824219 692.253906 267.699219 692.285156 267.554688 L 695.257813 252.601563 C 695.394531 252.0625 695.484375 251.542969 695.527344 251.007813 C 695.558594 250.492188 695.589844 250.007813 695.589844 249.558594 C 695.589844 248.46875 695.371094 247.605469 694.914063 246.9375 C 694.46875 246.285156 693.703125 245.960938 692.628906 245.960938 C 691.714844 245.960938 690.78125 246.234375 689.835938 246.78125 C 688.875 247.320313 687.980469 248.078125 687.117188 249.035156 C 686.261719 249.996094 685.503906 251.136719 684.835938 252.457031 C 684.164063 253.765625 683.675781 255.199219 683.378906 256.746094 L 681.230469 267.554688 C 681.183594 267.699219 681.125 267.824219 681.035156 267.914063 C 680.949219 268.011719 680.808594 268.09375 680.636719 268.171875 C 680.460938 268.246094 680.222656 268.296875 679.921875 268.335938 C 679.628906 268.367188 679.261719 268.378906 678.839844 268.378906 C 678.382813 268.378906 678.03125 268.367188 677.742188 268.335938 C 677.464844 268.296875 677.25 268.246094 677.105469 268.171875 C 676.949219 268.09375 676.851563 268.011719 676.804688 267.914063 C 676.765625 267.824219 676.753906 267.699219 676.789063 267.554688 L 681.65625 243.324219 C 681.671875 243.191406 681.722656 243.078125 681.816406 242.972656 C 681.890625 242.859375 682.011719 242.785156 682.183594 242.703125 C 682.355469 242.632813 682.566406 242.589844 682.828125 242.558594 C 683.089844 242.53125 683.390625 242.515625 683.761719 242.515625 C 684.136719 242.515625 684.445313 242.53125 684.683594 242.558594 C 684.925781 242.589844 685.121094 242.632813 685.253906 242.703125 C 685.382813 242.785156 685.464844 242.859375 685.503906 242.972656 C 685.539063 243.078125 685.539063 243.191406 685.539063 243.324219 L 684.609375 247.953125 C 684.894531 247.351563 685.328125 246.703125 685.945313 246.015625 C 686.5625 245.332031 687.289063 244.707031 688.109375 244.136719 C 688.933594 243.550781 689.835938 243.078125 690.8125 242.703125 C 691.789063 242.324219 692.796875 242.136719 693.808594 242.136719 C 694.882813 242.136719 695.816406 242.289063 696.582031 242.589844 C 697.355469 242.875 697.984375 243.289063 698.472656 243.789063 C 698.96875 244.308594 699.328125 244.917969 699.5625 245.625 C 699.804688 246.328125 699.945313 247.113281 700.003906 247.953125 C 700.351563 247.320313 700.847656 246.675781 701.476563 245.984375 C 702.109375 245.300781 702.828125 244.675781 703.65625 244.121094 C 704.480469 243.550781 705.375 243.078125 706.34375 242.703125 C 707.304688 242.324219 708.296875 242.136719 709.304688 242.136719 C 710.503906 242.136719 711.511719 242.3125 712.316406 242.648438 C 713.121094 242.996094 713.78125 243.460938 714.277344 244.046875 C 714.785156 244.648438 715.132813 245.332031 715.355469 246.117188 C 715.566406 246.910156 715.671875 247.773438 715.671875 248.710938 C 715.671875 249.320313 715.636719 249.949219 715.566406 250.550781 C 715.5 251.167969 715.402344 251.796875 715.265625 252.445313 "/>
<path style=" stroke:none;fill-rule:nonzero;fill:rgb(15.299988%,19.198608%,52.198792%);fill-opacity:1;" d="M 738.925781 248.703125 C 738.925781 247.789063 738.578125 247.050781 737.859375 246.480469 C 737.144531 245.910156 736.117188 245.640625 734.796875 245.640625 C 733.621094 245.640625 732.59375 245.835938 731.691406 246.238281 C 730.8125 246.644531 730.011719 247.183594 729.3125 247.867188 C 728.636719 248.546875 728.035156 249.347656 727.546875 250.25 C 727.042969 251.152344 726.652344 252.105469 726.351563 253.109375 L 729.09375 253.109375 C 730.972656 253.109375 732.550781 253 733.820313 252.757813 C 735.078125 252.527344 736.089844 252.21875 736.84375 251.804688 C 737.617188 251.40625 738.160156 250.941406 738.460938 250.386719 C 738.777344 249.859375 738.925781 249.289063 738.925781 248.703125 M 743.484375 248.304688 C 743.484375 249.539063 743.191406 250.65625 742.621094 251.632813 C 742.050781 252.609375 741.148438 253.457031 739.933594 254.15625 C 738.707031 254.859375 737.152344 255.394531 735.253906 255.777344 C 733.351563 256.152344 731.078125 256.34375 728.417969 256.34375 L 725.570313 256.34375 C 725.449219 256.929688 725.363281 257.507813 725.316406 258.0625 C 725.265625 258.609375 725.25 259.136719 725.25 259.625 C 725.25 261.410156 725.691406 262.777344 726.578125 263.730469 C 727.464844 264.683594 728.90625 265.152344 730.890625 265.152344 C 732.039063 265.152344 733.082031 265.074219 733.984375 264.902344 C 734.898438 264.730469 735.695313 264.550781 736.371094 264.347656 C 737.039063 264.160156 737.589844 263.972656 738.015625 263.800781 C 738.453125 263.628906 738.746094 263.542969 738.910156 263.542969 C 739.070313 263.542969 739.179688 263.605469 739.269531 263.71875 C 739.355469 263.832031 739.390625 264.003906 739.390625 264.222656 C 739.390625 264.398438 739.375 264.609375 739.332031 264.859375 C 739.300781 265.121094 739.242188 265.378906 739.179688 265.632813 C 739.105469 265.886719 739.007813 266.136719 738.894531 266.367188 C 738.777344 266.601563 738.65625 266.804688 738.503906 266.96875 C 738.28125 267.171875 737.90625 267.390625 737.363281 267.585938 C 736.808594 267.796875 736.167969 267.988281 735.410156 268.164063 C 734.660156 268.320313 733.839844 268.464844 732.941406 268.574219 C 732.039063 268.683594 731.144531 268.734375 730.242188 268.734375 C 728.652344 268.734375 727.253906 268.5625 726.050781 268.191406 C 724.859375 267.832031 723.84375 267.285156 723.054688 266.550781 C 722.253906 265.796875 721.65625 264.875 721.261719 263.769531 C 720.871094 262.648438 720.675781 261.34375 720.675781 259.835938 C 720.675781 258.679688 720.789063 257.417969 721.011719 256.078125 C 721.246094 254.75 721.589844 253.429688 722.070313 252.121094 C 722.550781 250.808594 723.183594 249.550781 723.957031 248.347656 C 724.730469 247.15625 725.648438 246.089844 726.714844 245.1875 C 727.789063 244.257813 729.019531 243.527344 730.40625 242.964844 C 731.804688 242.410156 733.398438 242.140625 735.148438 242.140625 C 736.65625 242.140625 737.917969 242.320313 738.972656 242.710938 C 740.023438 243.078125 740.886719 243.566406 741.554688 244.152344 C 742.230469 244.746094 742.726563 245.40625 743.027344 246.136719 C 743.328125 246.855469 743.484375 247.585938 743.484375 248.304688 "/>
<path style=" stroke:none;fill-rule:nonzero;fill:rgb(15.299988%,19.198608%,52.198792%);fill-opacity:1;" d="M 764.988281 244.660156 C 764.988281 244.847656 764.960938 245.082031 764.914063 245.382813 C 764.851563 245.667969 764.785156 245.96875 764.6875 246.253906 C 764.582031 246.539063 764.46875 246.789063 764.34375 246.976563 C 764.199219 247.171875 764.054688 247.277344 763.890625 247.277344 C 763.679688 247.277344 763.417969 247.199219 763.125 247.019531 C 762.832031 246.855469 762.472656 246.660156 762.042969 246.441406 C 761.609375 246.222656 761.097656 246.035156 760.480469 245.847656 C 759.882813 245.667969 759.175781 245.578125 758.347656 245.578125 C 757.566406 245.578125 756.859375 245.699219 756.261719 245.910156 C 755.644531 246.140625 755.132813 246.441406 754.726563 246.832031 C 754.324219 247.214844 754.007813 247.652344 753.78125 248.148438 C 753.5625 248.640625 753.453125 249.152344 753.453125 249.695313 C 753.453125 250.417969 753.691406 251.007813 754.171875 251.488281 C 754.652344 251.964844 755.238281 252.382813 755.960938 252.765625 C 756.679688 253.140625 757.453125 253.511719 758.273438 253.878906 C 759.113281 254.246094 759.882813 254.695313 760.59375 255.222656 C 761.300781 255.757813 761.894531 256.394531 762.375 257.128906 C 762.839844 257.882813 763.082031 258.8125 763.082031 259.9375 C 763.082031 261.191406 762.839844 262.371094 762.34375 263.453125 C 761.855469 264.535156 761.140625 265.46875 760.226563 266.246094 C 759.300781 267.027344 758.183594 267.636719 756.878906 268.082031 C 755.5625 268.515625 754.097656 268.742188 752.488281 268.742188 C 751.648438 268.742188 750.851563 268.667969 750.109375 268.554688 C 749.375 268.425781 748.695313 268.261719 748.097656 268.066406 C 747.496094 267.863281 746.976563 267.652344 746.542969 267.402344 C 746.113281 267.164063 745.777344 266.933594 745.550781 266.726563 C 745.414063 266.570313 745.300781 266.429688 745.242188 266.269531 C 745.183594 266.128906 745.144531 265.941406 745.144531 265.722656 C 745.144531 265.585938 745.160156 265.40625 745.183594 265.210938 C 745.195313 265.015625 745.226563 264.808594 745.28125 264.597656 C 745.339844 264.386719 745.398438 264.175781 745.460938 263.980469 C 745.519531 263.777344 745.59375 263.605469 745.683594 263.4375 C 745.777344 263.273438 745.867188 263.144531 745.957031 263.050781 C 746.046875 262.941406 746.152344 262.898438 746.285156 262.898438 C 746.496094 262.898438 746.753906 263.027344 747.050781 263.257813 C 747.351563 263.5 747.757813 263.769531 748.253906 264.039063 C 748.742188 264.324219 749.359375 264.582031 750.09375 264.820313 C 750.824219 265.066406 751.753906 265.183594 752.84375 265.183594 C 753.828125 265.183594 754.667969 265.066406 755.375 264.820313 C 756.09375 264.582031 756.679688 264.25 757.140625 263.859375 C 757.613281 263.453125 757.941406 262.988281 758.183594 262.445313 C 758.402344 261.90625 758.511719 261.335938 758.511719 260.75 C 758.511719 260 758.273438 259.382813 757.824219 258.902344 C 757.347656 258.4375 756.761719 258.003906 756.058594 257.617188 C 755.34375 257.234375 754.578125 256.84375 753.753906 256.46875 C 752.933594 256.09375 752.160156 255.65625 751.453125 255.140625 C 750.738281 254.636719 750.160156 254.007813 749.679688 253.253906 C 749.214844 252.519531 748.960938 251.570313 748.960938 250.429688 C 748.960938 249.242188 749.199219 248.148438 749.667969 247.125 C 750.132813 246.117188 750.792969 245.238281 751.640625 244.496094 C 752.488281 243.746094 753.519531 243.175781 754.714844 242.753906 C 755.898438 242.34375 757.222656 242.140625 758.671875 242.140625 C 759.355469 242.140625 760.015625 242.199219 760.648438 242.296875 C 761.285156 242.410156 761.871094 242.546875 762.421875 242.710938 C 762.945313 242.867188 763.417969 243.054688 763.808594 243.242188 C 764.207031 243.445313 764.5 243.632813 764.703125 243.828125 C 764.898438 244.015625 764.988281 244.285156 764.988281 244.660156 "/>
</g>
</svg>
